<svg width="981" height="999" viewBox="0 0 981 999" fill="none" xmlns="http://www.w3.org/2000/svg">
<g clip-path="url(#clip0)">
<path opacity="0.1" d="M-277.765 417.948V578.262H-26.5882V417.948H-277.765ZM-277.765 583.222V720.902C-276.328 721.192 -274.914 721.481 -273.489 721.725C-271.577 722.096 -269.653 722.432 -267.695 722.721L-266.536 722.884C-265.771 723.011 -264.995 723.115 -264.219 723.208C-262.284 723.486 -260.348 723.695 -258.425 723.88C-257.521 723.973 -256.582 724.043 -255.667 724.124L-253.43 724.286C-252.214 724.379 -251.009 724.448 -249.803 724.495C-249.062 724.495 -248.32 724.553 -247.567 724.576C-246.814 724.599 -246.408 724.576 -245.806 724.576H-243.616C-242.619 724.576 -241.622 724.576 -240.638 724.576H-239.363C-238.366 724.576 -237.37 724.576 -236.385 724.483H-236.327C-235.632 724.483 -234.948 724.483 -234.253 724.402C-234.056 724.413 -233.859 724.413 -233.662 724.402C-233.082 724.402 -232.503 724.402 -231.947 724.332C-231.816 724.322 -231.684 724.322 -231.553 724.332C-230.266 724.251 -228.969 724.147 -227.659 724.031C-226.35 723.915 -225.11 723.776 -223.801 723.637L-221.17 723.312C-210.421 721.807 -199.792 719.546 -189.362 716.544C-165.92 710.008 -143.011 700.864 -119.58 694.177C-89.3128 685.543 -55.8473 681.29 -26.5998 691.801V583.222H-277.765ZM-26.5882 239.45V26.0232C-54.0847 25.7206 -81.5072 28.9337 -108.189 35.5843C-171.795 51.5659 -228.911 86.2293 -277.765 130.5V239.439H-265.123V244.388H-277.765V412.988H-26.5882V244.388H-213.406V239.427L-26.5882 239.45ZM296.108 167.354C280.372 166.798 264.728 161.826 250.568 154.119C223.522 139.412 201.9 116.674 177.751 97.5056C127.576 57.5575 65.3492 33.4403 1.51217 27.4603V239.45H360.05L360.942 238.512L296.108 167.354ZM328.774 161.559L363.41 199.584V151.558C351.753 153.03 341.602 156.448 328.774 161.513V161.559ZM363.41 755.09V583.222H289.549C289.364 582.492 289.155 581.75 288.924 581.008C289.144 581.75 289.341 582.492 289.538 583.222H1.51217V707.505C4.24689 709.533 6.94684 711.677 9.62361 713.832C12.5128 716.197 15.3827 718.588 18.2333 721.006L21.1071 723.382C22.486 724.541 23.8881 725.7 25.2787 726.801C28.0675 729.049 30.8756 731.274 33.703 733.476C35.1167 734.589 36.5381 735.682 37.9673 736.756C60.6007 754.056 84.4739 769.67 109.394 783.472C114.98 786.59 120.623 789.591 126.301 792.523C130.078 794.47 133.883 796.379 137.715 798.248C143.462 801.053 149.256 803.757 155.097 806.361C208.94 830.534 265.877 847.117 324.278 855.638C337.241 857.547 350.262 859.053 363.34 860.158V755.067H364.499L363.41 755.09ZM1.51217 244.388V412.988H363.41V244.388H1.51217ZM1.51217 417.925V578.262H363.41V417.948L1.51217 417.925ZM391.499 151.326V204.984L435.694 156.46C421.047 154.042 406.316 152.33 391.499 151.326ZM391.499 417.948V578.262H743.477V417.948H391.499ZM742.237 767.804L743.477 583.222H391.499V862.024C414.171 862.967 436.877 862.692 459.519 861.201H459.913C470.728 860.506 481.493 859.517 492.208 858.234H492.451C549.632 851.578 605.54 836.641 658.423 813.894L742.237 767.804ZM811.382 444.279C810.045 441.188 808.674 438.098 807.268 435.007C804.649 429.213 801.891 423.58 799.041 417.959H771.578V578.262H841C840.942 532.855 829.447 486.498 811.382 444.279V444.279ZM771.578 583.222V741.994C791.126 723.255 807.662 701.803 819.551 677.28C833.862 647.739 840.409 615.776 840.954 583.21L771.578 583.222ZM771.578 371.232V412.953H796.468C788.923 398.611 780.614 384.684 771.578 371.232V371.232ZM532.87 182.791C531.039 182.084 529.196 181.377 527.354 180.705C507.927 173.524 488.074 167.556 467.908 162.834L400.259 237.075L398.938 238.5L399.807 239.439H640.578C607.043 216.36 570.887 197.344 532.87 182.791V182.791ZM647.646 244.388H396.435L391.499 248.896V412.988H434.779H743.477V333.486C715.564 299.725 683.346 269.771 647.646 244.388V244.388Z" fill="#AAAAEE"/>
<path opacity="0.1" d="M361.278 251.775H288.368V413.271H361.278V251.775Z" fill="black"/>
<path opacity="0.1" d="M361.29 418.232V578.557H-0.608154V509.404H192.154V550.198H288.368V418.232H361.29Z" fill="black"/>
<path opacity="0.1" d="M362.437 755.42C362.054 755.42 361.672 755.42 361.278 755.351V860.523C348.215 859.449 335.198 857.946 322.227 856.015C263.806 847.497 206.847 830.921 152.976 806.761C137.425 799.745 122.191 792.1 107.274 783.825C82.3615 770.016 58.4926 754.403 35.8586 737.109C30.1574 732.752 24.5412 728.298 19.0099 723.747C15.1744 720.571 11.3736 717.326 7.50329 714.186C4.8381 712.019 2.13815 709.875 -0.608154 707.835V583.517H287.417C287.209 582.775 287.024 582.045 286.815 581.304C287.035 582.045 287.244 582.775 287.429 583.517H361.29V755.339C361.672 755.351 362.054 755.386 362.437 755.42Z" fill="black"/>
<path opacity="0.1" d="M551.445 239.746H503.935V224.981H525.222V181C527.068 181.68 528.907 182.375 530.738 183.086V224.981H551.433L551.445 239.746Z" fill="black"/>
<path opacity="0.1" d="M665.921 413.283H432.659C432.682 413.288 432.705 413.288 432.728 413.283H432.624H389.378V251.787H401.638V371.156H457.654V300.462H503.947V244.683H551.457V300.497H597.727V371.191H665.932L665.921 413.283Z" fill="black"/>
<path opacity="0.1" d="M389.378 418.243V578.557H665.932V418.243H389.378ZM740.963 767.253L741.357 640.351H665.932V583.564H389.378V862.319C412.05 863.262 434.756 862.988 457.399 861.497H457.793C468.608 860.801 479.373 859.812 490.088 858.53H490.331C547.511 851.873 603.42 836.937 656.303 814.189" fill="black"/>
<path opacity="0.1" d="M774.324 583.517H838.833C838.277 616.071 831.742 648.046 817.431 677.575C805.542 702.11 789.006 723.561 769.457 742.301V640.316H774.324V583.517Z" fill="black"/>
<path opacity="0.1" d="M838.88 578.557H774.324V444.574H809.261C827.327 486.793 838.822 533.15 838.88 578.557Z" fill="black"/>
<path opacity="0.1" d="M166.8 574.837H-0.608154V578.557H166.8V574.837Z" fill="#6C63FF"/>
<path opacity="0.1" d="M361.29 296.672H322.227V347.305H361.29V296.672Z" fill="#444444"/>
<path opacity="0.1" d="M361.29 401.624H322.227V413.283H361.29V401.624Z" fill="#444444"/>
<path opacity="0.1" d="M361.29 418.232H322.227V452.246H361.29V418.232Z" fill="#444444"/>
<path opacity="0.1" d="M361.29 506.576H322.227V557.21H361.29V506.576Z" fill="#444444"/>
<path opacity="0.1" d="M361.29 611.528H322.227V662.162H361.29V611.528Z" fill="#444444"/>
<path opacity="0.1" d="M361.29 755.339C361.672 755.339 362.054 755.339 362.448 755.42C362.066 755.42 361.684 755.42 361.29 755.351V767.114H322.227V716.48H361.29V755.339Z" fill="#444444"/>
<path opacity="0.1" d="M361.29 821.421V860.523C348.219 859.449 335.198 857.946 322.227 856.015V821.421H361.29Z" fill="#444444"/>
<path opacity="0.1" d="M166.8 583.506H-0.608154V597.76H166.8V583.506Z" fill="#444444"/>
<path opacity="0.1" d="M166.8 644.488H-0.608154V667.412H166.8V644.488Z" fill="#444444"/>
<path opacity="0.1" d="M166.8 714.139V737.063H35.8585C30.1573 732.721 24.5411 728.263 19.0098 723.689C15.1627 720.525 11.3619 717.28 7.50317 714.139H166.8Z" fill="#444444"/>
<path opacity="0.1" d="M166.8 783.779V806.761H152.976C137.425 799.745 122.191 792.1 107.274 783.825L166.8 783.779Z" fill="#444444"/>
<path opacity="0.1" d="M490.354 433.773H457.399V466.733H490.354V433.773Z" fill="#444444"/>
<path opacity="0.1" d="M616.163 433.773H583.207V466.733H616.163V433.773Z" fill="#444444"/>
<path opacity="0.1" d="M490.354 515.071H457.399V548.031H490.354V515.071Z" fill="#444444"/>
<path opacity="0.1" d="M616.163 515.071H583.207V548.031H616.163V515.071Z" fill="#444444"/>
<path opacity="0.1" d="M490.354 596.358H457.399V629.318H490.354V596.358Z" fill="#444444"/>
<path opacity="0.1" d="M616.163 596.358H583.207V629.318H616.163V596.358Z" fill="#444444"/>
<path opacity="0.1" d="M490.354 677.656H457.399V710.616H490.354V677.656Z" fill="#444444"/>
<path opacity="0.1" d="M616.163 677.656H583.207V710.616H616.163V677.656Z" fill="#444444"/>
<path opacity="0.1" d="M490.354 758.955H457.399V791.915H490.354V758.955Z" fill="#444444"/>
<path opacity="0.1" d="M616.163 758.955H583.207V791.915H616.163V758.955Z" fill="#444444"/>
<path opacity="0.1" d="M457.399 861.497V840.242H490.343V858.472L457.399 861.497Z" fill="#444444"/>
<path opacity="0.1" d="M503.398 728.044H504.557H503.398ZM428.924 554.008C429.144 554.75 429.341 555.492 429.538 556.222C429.364 555.492 429.155 554.75 428.924 554.008ZM-125.122 212.45V217.387H-73.3599V212.427L-125.122 212.45ZM503.41 728.044H504.569H503.41ZM428.924 554.008C429.144 554.75 429.341 555.492 429.538 556.222C429.364 555.492 429.155 554.75 428.924 554.008ZM503.398 728.044H504.557H503.398ZM428.924 554.008C429.144 554.75 429.341 555.492 429.538 556.222C429.364 555.492 429.155 554.75 428.924 554.008Z" fill="#6C63FF"/>
<path opacity="0.1" d="M647.064 999C709.423 999 759.975 990.88 759.975 980.863C759.975 970.846 709.423 962.726 647.064 962.726C584.704 962.726 534.152 970.846 534.152 980.863C534.152 990.88 584.704 999 647.064 999Z" fill="#6C63FF"/>
<path opacity="0.1" d="M137.827 980.863C200.186 980.863 250.739 972.743 250.739 962.726C250.739 952.709 200.186 944.589 137.827 944.589C75.4681 944.589 24.916 952.709 24.916 962.726C24.916 972.743 75.4681 980.863 137.827 980.863Z" fill="#6C63FF"/>
<path d="M267.819 483.14C267.791 483.025 267.731 482.92 267.645 482.839C265.919 481.135 243.902 449.995 243.902 449.995C243.902 449.995 242.743 446.518 240.866 441.998C241.468 441.219 241.919 440.335 242.198 439.391C242.3 438.991 242.373 438.584 242.418 438.174C242.418 438.046 242.511 437.942 242.546 437.815C242.948 436.243 242.908 434.59 242.43 433.04C242.301 433.438 242.143 433.825 241.955 434.199C241.519 432.849 240.936 431.551 240.217 430.328C237.297 425.298 233.125 421.057 230.054 416.154C225.405 408.538 223.556 399.537 224.828 390.704C224.828 391.156 224.828 391.62 224.828 392.072C224.944 390.32 225.177 388.578 225.523 386.857C226.008 384.898 226.655 382.983 227.459 381.132C230.217 374.816 234.678 369.311 237.389 362.971C238.299 360.833 238.99 358.608 239.452 356.331C240.408 352.527 240.756 348.596 240.483 344.684C240.483 345.611 240.333 346.538 240.194 347.453C239.901 338.047 236.102 329.089 229.544 322.34C220.077 312.825 206.485 309.128 193.483 307.181C188.02 306.543 182.802 304.552 178.303 301.386C173.309 298.153 166.855 297.376 161.014 298.083C154.302 298.809 148.065 301.893 143.413 306.787C137.236 313.578 134.56 323.197 127.352 328.922C122.983 332.399 117.444 334.022 112.357 336.386C107.27 338.75 102.461 342.18 100.827 347.256C100.827 347.256 100.827 347.187 100.827 347.152V347.442L100.758 347.627C99.0661 353.63 102.334 359.738 104.037 365.73C105.81 371.93 105.926 378.478 106.019 384.887C106.146 392.721 106.262 400.567 106.135 408.413C106.077 411.496 105.972 414.613 105.741 417.684C102.998 418.513 100.334 419.584 97.7799 420.883C95.1842 422.575 85.4737 433.063 85.4737 433.063L66.4813 505.635L66.7363 505.925L66.4813 506.91L67.4431 506.689C70.1315 509.587 78.1618 517.838 86.8295 522.984L87.6406 537.216C87.6406 537.216 88.614 551.493 101.743 557.392C102.044 562.341 102.983 582.437 98.6374 590.398C95.6283 596.215 94.213 602.725 94.5353 609.266C94.5353 609.266 96.0533 621.342 94.3267 627.693C93.318 631.937 93.2429 636.35 94.1066 640.626C94.1066 640.626 94.1066 642.029 94.1066 644.439C94.1066 657.292 94.2572 698.48 94.1066 703.139C93.8864 708.643 94.1066 790.058 94.1066 790.058C94.1066 790.058 93.0289 830.748 89.5758 841.769C86.1226 852.79 86.9917 889.285 86.9917 889.285C86.9917 889.285 84.8248 932.756 92.4843 941.332C92.4843 941.714 92.4148 942.108 92.4032 942.491C92.4032 942.665 92.4032 942.862 92.4032 943.036C92.3105 946.339 92.9478 949.85 95.7868 950.928C101.581 953.153 109.24 959.828 110.689 961.741C112.137 963.653 120.561 968.416 131.547 967.141C138.428 966.368 145.354 966.05 152.277 966.191C152.277 966.191 156.611 965.403 155.209 960.014C154.305 956.653 150.921 951.484 148.511 948.089C148.952 948.204 149.38 948.297 149.786 948.378L150.203 948.459H150.527C150.705 948.47 150.883 948.47 151.06 948.459H151.292C151.508 948.477 151.725 948.477 151.941 948.459C154.85 948.181 165.696 953.234 167.631 956.572C169.566 959.91 176.391 962.448 181.536 963.085C184.596 963.456 192.313 962.83 198.791 961.996C202.053 961.659 205.284 961.07 208.455 960.234C209.984 959.655 210.309 957.8 209.868 955.714C209.348 953.065 207.933 950.675 205.859 948.946C203.982 947.613 201.502 944.102 199.671 941.228L199.185 940.451C202.417 937.368 208.258 927.286 210.031 925.2C212.186 922.662 206.554 829.844 206.554 829.844V783.313L215.187 739.274L221.224 715.968L226.404 680.783C226.404 680.783 235.466 639.687 232.673 635.654C232.673 635.573 230.356 593.261 227.922 583.097C226.868 578.566 227.134 568.367 227.76 558.447C228.414 557.797 228.87 556.976 229.075 556.077C229.28 555.178 229.226 554.24 228.919 553.371C228.746 552.777 228.521 552.199 228.247 551.644C228.247 551.47 228.247 551.285 228.247 551.111C233.252 548.807 238.483 547.029 243.855 545.803C252.488 544.111 250.333 539.661 250.333 539.661C250.333 539.661 252.28 535.848 253.566 533.519C254.852 531.189 253.786 510.63 253.566 508.938C253.485 508.254 252.952 504.476 252.338 500.188C255.107 498.218 258.711 495.772 262.639 493.455C270.113 489.027 268.433 484.357 267.819 483.14ZM155.186 776.962C155.186 776.962 148.708 793.488 151.304 797.718C153.899 801.948 150.875 817.652 150.875 817.652L148.708 840.958C148.708 840.958 142.671 884.186 144.826 894.349C146.518 902.323 147.144 926.139 147.341 936.07C147.192 936.128 147.049 936.198 146.912 936.279L146.622 936.43C147.619 932.524 147.202 924.62 142.254 908.72L141.837 843.044C141.837 843.044 141.072 767.181 147.063 758.697C153.054 750.214 155.174 735.809 155.174 735.809C155.174 735.809 153.876 756.588 153.03 762.093C152.185 767.598 155.186 776.962 155.186 776.962ZM143.123 940.208C143.065 940.347 142.995 940.486 142.949 940.613L142.625 940.196C142.79 940.212 142.957 940.216 143.123 940.208Z" fill="url(#paint0_linear)"/>
<path d="M209.185 966.237C205.836 967.524 187.678 969.714 182.602 969.1C177.527 968.486 170.806 965.913 168.894 962.552C166.982 959.191 156.263 954.115 153.39 954.439C152.212 954.475 151.036 954.31 149.913 953.953C147.931 953.352 145.994 952.609 144.119 951.728C143.858 950.267 143.901 948.767 144.247 947.324C144.314 947.033 144.399 946.746 144.502 946.466C145.178 944.565 146.577 943.007 148.395 942.132L148.812 941.935C149.616 941.588 150.455 941.331 151.315 941.17C160.423 939.42 198.003 942.931 198.003 942.931C198.003 942.931 199.057 944.82 200.505 947.161C202.313 950.059 204.77 953.593 206.624 954.926C208.678 956.682 210.071 959.086 210.575 961.741C211.016 963.792 210.691 965.669 209.185 966.237Z" fill="white"/>
<path opacity="0.1" d="M209.185 966.237C205.836 967.524 187.689 969.714 182.614 969.1C177.539 968.486 170.818 965.901 168.894 962.552C166.971 959.203 156.275 954.115 153.401 954.439C150.527 954.764 144.131 951.728 144.131 951.728C144.131 951.728 143.134 947.092 146.031 943.928L151.825 948.042C151.825 948.042 167.33 952.852 170.203 957.314C173.077 961.775 178.315 964.267 185.882 964.719C191.537 965.09 204.526 962.888 210.61 961.787C211.016 963.792 210.703 965.669 209.185 966.237Z" fill="black"/>
<path d="M153.714 972.148C146.879 972.015 140.043 972.336 133.25 973.11C122.369 974.384 114.061 969.633 112.612 967.674C111.164 965.716 103.667 959.098 97.9074 956.78C95.0916 955.691 94.431 952.145 94.5585 948.83C94.5585 948.656 94.5585 948.459 94.5585 948.285C94.6652 946.186 94.9757 944.102 95.4856 942.062L140.574 941.1L144.479 946.396L145.081 947.208L147.457 950.441C147.457 950.441 148.534 951.855 149.948 953.918C152.335 957.395 155.672 962.529 156.565 965.924C157.99 971.36 153.714 972.148 153.714 972.148Z" fill="white"/>
<path opacity="0.1" d="M153.714 972.148C146.879 972.015 140.043 972.336 133.25 973.11C122.381 974.384 114.061 969.633 112.624 967.674C111.187 965.716 103.667 959.04 97.9074 956.804C95.0916 955.714 94.431 952.168 94.5585 948.853C97.7799 949.607 104.547 951.53 107.201 954.88C110.677 959.353 116.9 966.875 125.741 967.35C132.879 967.732 150.261 966.457 156.634 965.947C158.002 971.36 153.714 972.148 153.714 972.148Z" fill="black"/>
<path opacity="0.1" d="M148.349 942.085C147.827 945.956 146.217 946.999 145.058 947.231C144.775 947.286 144.484 947.286 144.201 947.231C144.048 947.22 143.897 947.197 143.749 947.161C143.749 947.161 103.261 956.108 95.0799 948.865C94.8722 948.679 94.6786 948.477 94.5005 948.262C94.6073 946.163 94.9177 944.078 95.4276 942.039L140.516 941.077L144.421 946.373C145.097 944.472 146.496 942.914 148.314 942.039L148.349 942.085Z" fill="black"/>
<path opacity="0.1" d="M200.494 947.115C199.59 948.112 198.837 948.68 198.362 948.483C196.23 947.625 178.755 944.647 173.205 947.208C167.654 949.769 148.87 947.625 148.87 947.625C148.87 947.625 148.87 945.4 148.766 941.83C149.569 941.483 150.409 941.227 151.269 941.065C160.377 939.315 197.956 942.827 197.956 942.827C197.956 942.827 199.057 944.774 200.494 947.115Z" fill="black"/>
<path d="M226.937 684.967L221.816 720.36L215.859 743.817L207.331 788.157V835.093C207.331 835.093 212.87 928.48 210.738 931.029C208.605 933.579 200.506 948.1 198.373 947.254C196.241 946.408 178.767 943.418 173.216 945.968C167.666 948.517 148.882 946.396 148.882 946.396C148.882 946.396 148.453 910.157 146.321 899.924C144.189 889.69 150.157 846.196 150.157 846.196L152.289 822.751C152.289 822.751 155.278 806.966 152.718 802.702C150.157 798.437 156.553 781.841 156.553 781.841C156.553 781.841 153.575 772.442 154.433 766.902C155.29 761.363 156.553 740.467 156.553 740.467C156.553 740.467 154.433 754.977 148.511 763.495C142.59 772.013 143.343 848.352 143.343 848.352L143.76 914.41C154.433 949.386 143.76 945.968 143.76 945.968C143.76 945.968 103.273 954.926 95.0916 947.671C86.9106 940.416 89.2514 894.755 89.2514 894.755C89.2514 894.755 88.4054 858.087 91.8122 847.007C95.2191 835.928 96.2967 794.983 96.2967 794.983C96.2967 794.983 96.0765 713.105 96.2967 707.577C96.4589 702.941 96.2967 661.44 96.2967 648.472C96.2967 646.061 96.2967 644.636 96.2967 644.636L101.187 632.491L159.126 625.236H186.844C186.844 625.236 228.56 635.04 232.87 639.27C232.962 639.341 233.041 639.427 233.102 639.525C235.895 643.616 226.937 684.967 226.937 684.967Z" fill="#303050"/>
<path opacity="0.1" d="M156.588 870.881C156.588 870.881 169.334 901.581 175.348 903.713C181.363 905.846 156.588 870.881 156.588 870.881Z" fill="black"/>
<path opacity="0.1" d="M161.304 916.079C161.304 916.079 204.341 918.212 203.912 922.905C203.484 927.599 161.304 916.079 161.304 916.079Z" fill="black"/>
<path opacity="0.1" d="M103.724 903.806C105.428 905.417 136.553 908.442 133.992 911.385C131.431 914.329 106.285 920.054 106.285 920.054L103.724 903.806Z" fill="black"/>
<path opacity="0.1" d="M98.6142 850.843C98.6142 852.118 105.011 891.776 106.726 893.48C108.441 895.184 122.497 896.887 122.497 896.887L98.6142 850.843Z" fill="black"/>
<path d="M145.023 308.769C138.916 315.595 136.274 325.272 129.16 331.043C124.837 334.52 119.368 336.177 114.339 338.541C109.31 340.906 104.327 344.51 102.832 349.864C101.163 355.89 104.385 362.044 106.077 368.071C107.826 374.306 107.931 380.819 108.035 387.344C108.151 395.236 108.278 403.128 108.139 411.02C107.931 423.317 106.911 436.181 100.387 446.599C123.945 454.098 148.998 455.117 173.703 456.079C178.451 456.418 183.22 456.298 187.944 455.72C192.038 454.904 196.088 453.879 200.077 452.649C207.964 450.562 216.091 449.521 224.249 449.555C227.806 449.555 231.433 449.775 234.863 448.848C238.293 447.921 241.596 445.545 242.523 442.114C243.346 439.032 242.14 435.752 240.564 432.982C237.691 427.929 233.612 423.711 230.529 418.727C227.383 413.463 225.516 407.534 225.079 401.417C224.643 395.3 225.648 389.165 228.015 383.508C230.75 377.145 235.153 371.605 237.841 365.231C240.595 358.388 241.327 350.897 239.951 343.65C238.575 336.402 235.148 329.702 230.078 324.345C220.726 314.772 207.308 311.063 194.468 309.093C189.062 308.454 183.905 306.461 179.474 303.298C174.549 300.054 168.164 299.265 162.393 299.984C155.736 300.73 149.57 303.848 145.023 308.769Z" fill="#3F3D56"/>
<g opacity="0.1">
<path opacity="0.1" d="M228.374 376.821C226.012 382.405 224.999 388.468 225.419 394.517C225.679 390.192 226.678 385.942 228.374 381.955C231.097 375.592 235.501 370.052 238.189 363.678C240.387 358.356 241.311 352.594 240.889 346.851C240.65 350.876 239.737 354.833 238.189 358.556C235.501 364.93 231.097 370.458 228.374 376.821Z" fill="black"/>
<path opacity="0.1" d="M108.383 385.767C108.452 390.31 108.522 394.865 108.533 399.408C108.533 393.15 108.476 386.903 108.383 380.657C108.29 374.178 108.174 367.619 106.424 361.372C105.266 357.409 103.551 353.387 102.948 349.389C101.917 355.068 104.849 360.827 106.424 366.495C108.174 372.683 108.29 379.289 108.383 385.767Z" fill="black"/>
<path opacity="0.1" d="M235.257 442.219C231.781 443.157 228.212 442.949 224.654 442.925C216.503 442.874 208.379 443.895 200.494 445.962C196.504 447.187 192.455 448.208 188.362 449.021C183.634 449.609 178.86 449.733 174.109 449.392C150.238 448.454 126.031 447.445 103.168 440.619C102.489 442.135 101.715 443.606 100.851 445.023C124.409 452.51 149.461 453.541 174.155 454.503C178.907 454.844 183.68 454.719 188.408 454.132C192.487 453.327 196.521 452.309 200.494 451.084C208.363 449.009 216.47 447.977 224.608 448.013C228.166 448.013 231.781 448.233 235.211 447.295C238.641 446.356 241.943 444.003 242.87 440.573C243.261 438.984 243.221 437.32 242.754 435.752C241.723 438.997 238.537 441.257 235.257 442.219Z" fill="black"/>
</g>
<path d="M200.934 428.485C200.077 430.409 196.461 447.028 195.604 448.732C194.746 450.435 190.065 477.705 189.636 479.235C189.207 480.764 158.778 472.837 158.778 472.837L140.458 457.482L121.628 438.742C121.628 438.742 121.071 421.833 134.942 416.409C135.885 416.039 136.853 415.737 137.839 415.505C154.664 411.461 152.972 360.294 152.972 360.294L187.504 375.21C187.504 375.21 181.108 405.064 181.328 410.823C181.386 412.759 182.904 413.964 184.885 414.694C187.949 415.566 191.138 415.911 194.318 415.714C194.318 415.714 201.792 426.573 200.934 428.485Z" fill="#FBBEBE"/>
<path d="M262.755 484.554L267.657 485.84C267.657 485.84 271.284 491.357 262.755 496.491C257.34 499.781 252.141 503.416 247.193 507.373L221.989 515.045L217.134 499.805L240.588 482.004L262.755 484.554Z" fill="#101030"/>
<path d="M78.8223 499.272L69.019 508.868C69.019 508.868 86.702 529.335 100.306 530.61C113.91 531.885 122.682 515.045 122.682 515.045L110.909 496.503L78.8223 499.272Z" fill="#101030"/>
<path opacity="0.1" d="M171.942 393.729C190.776 393.729 206.044 378.459 206.044 359.622C206.044 340.785 190.776 325.515 171.942 325.515C153.107 325.515 137.839 340.785 137.839 359.622C137.839 378.459 153.107 393.729 171.942 393.729Z" fill="black"/>
<path d="M171.942 391.168C190.776 391.168 206.044 375.898 206.044 357.061C206.044 338.224 190.776 322.954 171.942 322.954C153.107 322.954 137.839 338.224 137.839 357.061C137.839 375.898 153.107 391.168 171.942 391.168Z" fill="#FBBEBE"/>
<path opacity="0.1" d="M233.125 643.396C225.36 644.285 217.711 645.998 210.309 648.507C197.562 652.749 97.6756 648.576 96.2851 648.507C96.2851 646.096 96.2851 644.671 96.2851 644.671L101.175 632.525L159.114 625.27H186.832C186.832 625.27 228.548 635.075 232.859 639.305C233.032 641.855 233.125 643.396 233.125 643.396Z" fill="black"/>
<path opacity="0.1" d="M200.934 428.485C200.077 430.409 196.461 447.028 195.604 448.732C194.746 450.435 190.065 477.705 189.636 479.235C189.207 480.764 158.778 472.837 158.778 472.837L140.458 457.482L121.628 438.742C121.628 438.742 121.071 421.833 134.942 416.409L169.381 456.01L184.885 414.694C187.949 415.566 191.138 415.911 194.318 415.714C194.318 415.714 201.792 426.573 200.934 428.485Z" fill="black"/>
<path d="M169.381 457.285L134.131 416.722C132.067 415.405 129.709 414.621 127.268 414.441C124.826 414.261 122.379 414.69 120.144 415.691C112.253 419.11 102.45 421.879 99.8888 423.583C97.3279 425.287 87.7333 435.833 87.7333 435.833L116.309 510.595L103.724 559.838C103.724 559.838 105.648 584.998 100.746 594.165C97.7618 600.026 96.3635 606.567 96.6906 613.137C96.6906 613.137 98.1854 625.294 96.482 631.679C95.4867 635.949 95.4116 640.382 96.2619 644.682C96.2619 644.682 197.527 648.947 210.309 644.682C217.709 642.167 225.359 640.453 233.125 639.572C233.125 639.572 230.807 596.923 228.49 586.69C226.172 576.457 230.414 537.447 230.414 537.447L227.644 495.656L244.261 452.776C244.261 452.776 235.257 425.287 225.871 422.517C225.871 422.517 208.826 418.461 205.199 416.548C201.572 414.636 190.911 412.921 190.911 412.921L185.314 414.798L169.381 457.285Z" fill="#303050"/>
<path opacity="0.1" d="M218.562 494.245L144.386 489.201C142.509 489.073 140.884 490.492 140.756 492.369L132.792 609.498C132.665 611.375 134.083 613.001 135.96 613.128L210.136 618.173C212.013 618.3 213.639 616.882 213.766 615.004L221.73 497.876C221.857 495.999 220.439 494.373 218.562 494.245Z" fill="black"/>
<path d="M221.116 491.702L146.94 486.657C145.063 486.53 143.438 487.948 143.31 489.825L135.347 606.954C135.219 608.831 136.637 610.457 138.514 610.584L212.69 615.629C214.567 615.756 216.193 614.338 216.32 612.461L224.284 495.332C224.412 493.455 222.993 491.829 221.116 491.702Z" fill="#3F3D56"/>
<path d="M218.668 500.883L148.123 496.085L140.873 602.715L211.419 607.513L218.668 500.883Z" fill="white"/>
<path opacity="0.1" d="M212.343 528.1L154.717 524.065L153.593 540.128L211.219 544.162L212.343 528.1Z" fill="black"/>
<path opacity="0.1" d="M210.258 591.932L201.113 591.31L200.544 599.681L209.688 600.303L210.258 591.932Z" fill="black"/>
<path opacity="0.1" d="M201.237 571.728L154.426 568.545L153.857 576.916L200.668 580.099L201.237 571.728Z" fill="black"/>
<path d="M209.937 496.896L161.195 493.581L160.32 506.45L209.062 509.765L209.937 496.896Z" fill="#3F3D56"/>
<path opacity="0.1" d="M209.937 496.896L161.195 493.581L160.32 506.45L209.062 509.765L209.937 496.896Z" fill="black"/>
<path opacity="0.1" d="M173.645 641.043C173.645 641.043 173.216 704.158 156.588 740.398C156.588 740.398 176.635 692.639 176.635 690.726C176.635 688.814 187.713 668.765 184.746 662.796C181.78 656.828 173.645 641.043 173.645 641.043Z" fill="black"/>
<path opacity="0.1" d="M174.549 348.531C173.912 342.945 175.279 337.314 178.408 332.642C178.036 337.325 179.36 341.985 182.138 345.772C184.916 349.559 188.964 352.221 193.541 353.271C193.151 352.932 192.872 352.483 192.742 351.982C192.611 351.481 192.636 350.953 192.811 350.467C195.187 353.155 197.006 356.342 199.694 358.707C202.383 361.071 206.415 362.485 209.579 360.804C213.878 358.486 213.924 352.379 212.812 347.627C210.425 337.508 205.527 328.154 198.57 320.427C196.835 318.092 194.582 316.19 191.989 314.871C189.395 313.552 186.532 312.852 183.622 312.825C177.04 312.315 170.204 312.894 164.305 315.85C160.986 317.661 157.877 319.834 155.035 322.328L138.812 335.563C137.251 336.688 135.915 338.095 134.872 339.712C134.176 341.064 133.758 342.541 133.644 344.058C133.23 348.392 134.032 352.757 135.96 356.66C137.888 360.564 140.866 363.854 144.56 366.158C144.482 362.733 145.424 359.361 147.266 356.472C149.109 353.583 151.769 351.307 154.908 349.934C155.399 350.345 155.797 350.856 156.075 351.434C156.353 352.012 156.504 352.642 156.518 353.283L159.937 347.187C160.445 346.078 161.246 345.128 162.254 344.44C164.363 343.281 166.994 344.649 168.79 346.283C170.586 347.917 172.336 349.957 174.746 350.212L174.839 341.137" fill="black"/>
<path d="M174.549 347.256C173.91 341.666 175.278 336.031 178.408 331.356C177.365 340.627 184.352 350.2 193.553 351.985C193.162 351.649 192.883 351.201 192.752 350.702C192.622 350.203 192.646 349.676 192.823 349.192C195.198 351.881 197.018 355.056 199.706 357.432C202.394 359.808 206.427 361.21 209.59 359.518C213.889 357.2 213.936 351.092 212.823 346.352C210.436 336.233 205.538 326.879 198.582 319.153C196.424 316.521 193.703 314.407 190.621 312.964C188.39 312.138 186.045 311.662 183.669 311.55C177.087 311.04 170.25 311.608 164.352 314.563C161.035 316.383 157.926 318.559 155.081 321.053L138.859 334.288C137.295 335.41 135.958 336.818 134.919 338.437C134.221 339.788 133.803 341.266 133.69 342.783C133.277 347.116 134.079 351.478 136.007 355.38C137.936 359.282 140.913 362.569 144.606 364.872C144.531 361.447 145.474 358.076 147.317 355.188C149.159 352.3 151.817 350.023 154.954 348.647C155.444 349.06 155.841 349.572 156.118 350.149C156.396 350.726 156.548 351.356 156.565 351.996L159.971 345.924C160.477 344.812 161.279 343.862 162.289 343.177C164.398 342.018 167.028 343.386 168.825 345.02C170.621 346.654 172.37 348.682 174.781 348.948L174.873 339.862" fill="#3F3D56"/>
<path d="M190.702 562.387C187.724 560.881 138.476 568.564 138.476 568.564C138.476 568.564 130.365 566.246 110.758 563.025C91.1517 559.803 89.9002 540.634 89.9002 540.634L87.7565 502.262L94.3731 496.468L122.717 515.011C122.717 515.011 123.157 524.386 122.717 526.078C122.439 527.237 121.697 528.616 121.767 529.555C121.788 529.809 121.893 530.049 122.065 530.238C122.236 530.426 122.466 530.553 122.717 530.598C124.64 531.085 150.852 535.326 150.852 535.326C150.852 535.326 211.607 531.166 226.752 551.632C227.952 553.135 228.86 554.849 229.429 556.685C233.183 570.674 193.402 563.72 190.702 562.387Z" fill="#FBBEBE"/>
<path opacity="0.1" d="M229.463 556.767C227.146 557.798 225.709 558.54 225.709 558.54C225.709 558.54 203.97 557.902 191.757 553.475C179.543 549.048 164.699 549.836 164.699 549.836C164.699 549.836 113.806 541.075 121.697 529.636C121.719 529.89 121.823 530.13 121.995 530.319C122.167 530.508 122.396 530.634 122.647 530.679C124.571 531.166 150.782 535.408 150.782 535.408C150.782 535.408 211.537 531.247 226.682 551.714C227.919 553.208 228.863 554.922 229.463 556.767Z" fill="black"/>
<path d="M250.599 489.248C250.599 489.248 253.589 510.352 253.798 512.067C254.006 513.782 255.084 534.446 253.798 536.798C252.511 539.151 250.599 542.975 250.599 542.975C250.599 542.975 252.732 547.449 244.203 549.164C235.674 550.879 225.662 555.978 225.662 555.978C225.662 555.978 203.912 555.341 191.768 550.868C179.624 546.394 164.699 547.24 164.699 547.24C164.699 547.24 100.097 536.149 127.815 522.613C155.533 509.077 175.14 527.411 175.14 527.411L206.044 525.499C206.044 525.499 217.563 518.453 220.761 519.102C223.019 519.389 225.313 519.019 227.366 518.035L227.586 495.645L250.599 489.248Z" fill="#FBBEBE"/>
<path opacity="0.1" d="M93.8865 437.444L87.6986 437.119L68.9496 510.131C68.9496 510.131 89.1934 505.009 97.919 510.131C106.645 515.254 122.647 516.308 122.647 516.308L116.68 458.107L93.8865 437.444Z" fill="black"/>
<path d="M93.8865 436.157L87.6986 435.833L68.9496 508.845C68.9496 508.845 89.1934 503.723 97.919 508.845C106.645 513.967 122.647 515.022 122.647 515.022L116.68 456.821L93.8865 436.157Z" fill="#303050"/>
<path d="M235.686 450.876L244.203 452.788C244.203 452.788 265.953 484.137 267.657 485.84C269.36 487.544 259.545 493.953 255.501 493.953C251.457 493.953 231.63 496.271 225.871 501.625C220.112 506.979 222.511 480.034 222.511 479.42C222.511 478.806 229.707 461.746 229.707 461.746L235.686 450.876Z" fill="#303050"/>
<g opacity="0.1">
<path opacity="0.1" d="M178.35 331.46C178.3 330.572 178.319 329.68 178.408 328.795C176.643 331.443 175.429 334.418 174.839 337.545V340.233C174.839 340.233 174.839 340.175 174.839 340.141V340.778C174.839 342.655 174.839 344.545 174.781 346.422H174.618V347.291C174.618 346.99 174.618 346.7 174.56 346.399C172.243 346.028 170.586 344.081 168.859 342.528C167.133 340.975 164.433 339.492 162.324 340.685C161.314 341.37 160.512 342.321 160.006 343.432L156.565 349.505C156.549 348.866 156.398 348.237 156.12 347.662C155.842 347.086 155.445 346.576 154.954 346.167C151.815 347.54 149.155 349.816 147.313 352.705C145.47 355.594 144.528 358.966 144.606 362.392C141.44 360.408 138.792 357.699 136.879 354.489C134.967 351.279 133.846 347.659 133.609 343.93C133.408 348.094 134.321 352.237 136.254 355.93C138.187 359.623 141.07 362.734 144.606 364.942C144.531 361.516 145.474 358.146 147.317 355.258C149.159 352.369 151.817 350.093 154.954 348.717C155.444 349.129 155.841 349.641 156.118 350.219C156.396 350.796 156.548 351.426 156.565 352.066L159.971 345.993C160.477 344.882 161.279 343.932 162.289 343.247C164.398 342.088 167.028 343.455 168.825 345.089C170.621 346.723 172.37 348.751 174.781 349.018C174.781 346.051 174.812 343.092 174.873 340.141C175.442 337.044 176.624 334.093 178.35 331.46Z" fill="black"/>
<path opacity="0.1" d="M174.433 343.131C174.491 342.343 174.584 341.555 174.7 340.813L174.827 337.614C174.479 339.431 174.346 341.283 174.433 343.131Z" fill="black"/>
<path opacity="0.1" d="M209.59 356.957C206.427 358.649 202.394 357.235 199.706 354.871C197.018 352.506 195.198 349.319 192.823 346.631C192.647 347.117 192.623 347.645 192.753 348.146C192.883 348.647 193.162 349.096 193.553 349.435C193.321 349.435 193.101 349.319 192.881 349.261C195.198 351.927 197.041 355.056 199.706 357.374C202.371 359.692 206.427 361.152 209.59 359.46C212.754 357.768 213.658 353.804 213.379 349.945C213.171 352.981 212.082 355.612 209.59 356.957Z" fill="black"/>
<path opacity="0.1" d="M192.811 349.238C188.936 348.182 185.476 345.966 182.896 342.888C180.315 339.81 178.737 336.017 178.373 332.017C177.712 341.114 184.572 350.235 193.553 351.985C193.17 351.653 192.895 351.214 192.763 350.725C192.631 350.235 192.648 349.718 192.811 349.238Z" fill="black"/>
</g>
<path d="M749.302 538.653C749.302 538.653 744.737 538.015 744.737 531.374C744.737 524.734 741.469 512.299 741.469 512.299C741.469 512.299 738.642 490.662 734.737 487.231C730.832 483.801 725.814 463.659 725.814 463.659C725.814 463.659 724.957 452.73 723.207 450.377C721.457 448.025 719.093 442.265 715.605 434.048C712.117 425.831 697.609 420.199 697.609 420.199C697.609 420.199 671.317 404.948 663.866 399.976C663.184 399.564 662.548 399.082 661.965 398.539C660.668 396.847 655.013 396.812 655.013 396.812C654.422 393.069 653.854 388.781 653.669 384.898C653.669 384.481 653.669 384.064 653.669 383.647C661.977 378.735 668.235 370.991 671.294 361.836C671.433 361.395 671.549 360.943 671.676 360.491C672.184 360.334 672.654 360.071 673.053 359.72C673.453 359.368 673.773 358.936 673.994 358.452C674.654 356.957 674.677 355.218 675.512 353.816C676.485 352.17 678.339 351.289 679.799 350.061C683.484 346.92 684.434 341.647 684.26 336.861C684.144 332.967 683.519 329.05 683.762 325.19C683.762 324.866 683.762 324.541 683.832 324.217C683.901 323.649 683.982 323.058 684.087 322.502C684.654 319.628 685.894 316.916 686.589 314.065C687.285 311.214 687.354 308.004 685.732 305.547C683.356 301.942 678.408 301.224 674.063 300.911C669.138 300.494 664.793 301.027 661.583 296.936C660.111 294.799 658.451 292.798 656.623 290.956C655.975 290.353 649.671 286.494 649.671 286.251C643.503 283.383 636.506 282.843 629.972 284.732C626.692 285.683 623.622 287.236 620.296 288.012C613.158 289.704 604.93 287.873 598.858 291.964C595.475 294.282 593.447 297.979 591.547 301.56C590.001 304.511 588.433 307.467 586.842 310.426C584.269 315.282 581.674 320.219 580.596 325.596C580.371 326.771 580.227 327.959 580.167 329.154C580.167 329.583 580.167 330.012 580.167 330.44C580.167 330.626 580.167 330.811 580.167 330.997C580.167 331.391 580.167 331.785 580.237 332.156C580.306 332.526 580.237 332.631 580.318 332.874C580.399 333.117 580.422 333.662 580.492 334.033C580.561 334.404 580.7 335.064 580.839 335.563C580.839 335.783 580.978 335.992 581.048 336.212C581.118 336.432 581.303 336.988 581.454 337.371C581.604 337.753 581.616 337.776 581.709 337.973C581.882 338.379 582.091 338.773 582.299 339.132C582.392 339.283 582.462 339.434 582.554 339.584C582.872 340.127 583.228 340.646 583.621 341.137C586.089 344.232 589.75 346.202 592.45 349.099C592.45 349.215 592.45 349.331 592.45 349.447C592.45 349.76 592.45 350.073 592.45 350.397C592.616 356.859 594.357 363.183 597.524 368.819C600.691 374.454 605.187 379.23 610.62 382.731C610.62 383.171 610.678 383.623 610.701 384.075C610.927 387.512 610.884 390.96 610.574 394.39C610.101 393.835 609.51 393.393 608.844 393.097C608.179 392.8 607.455 392.656 606.727 392.675C606.229 392.65 605.73 392.693 605.243 392.802L605.139 392.721V392.825C602.59 393.451 599.449 396.105 596.448 403.65C596.448 403.65 587.317 413.941 580.364 413.512C573.412 413.083 555.81 424.232 555.81 424.232C555.81 424.232 538.637 435.369 534.952 446.727C532.892 453.169 530.419 459.471 527.547 465.594L506.261 509.309L502.355 544.076C502.355 544.076 504.522 559.502 504.094 561.866C503.665 564.23 513.005 585.438 513.005 585.438C513.005 585.438 543.863 639.653 556.47 642.434L557.374 641.808C557.916 642.082 558.488 642.292 559.078 642.434L561.673 640.615C561.834 642.652 561.764 644.701 561.465 646.722C559.738 652.088 562.125 687.018 565.161 693.867C568.197 700.716 567.12 790.533 567.12 790.533L566.691 798.448C566.691 798.448 566.691 798.703 566.795 799.144L566.691 801.021L567.004 801.183C567.328 803.702 567.222 806.257 566.691 808.74C565.602 812.216 565.161 822.032 565.161 822.032C565.161 822.032 556.47 877.522 560.596 888.67C564.721 899.819 568.209 912.034 568.209 912.034C568.209 912.034 572.554 925.942 568.417 928.259C564.281 930.577 552.565 934.691 554.952 940.474C557.154 945.829 565.509 960.176 566.749 962.274L566.644 963.433L564.941 981.894C565.217 984.332 565.878 986.71 566.899 988.941C568.765 992.974 572.38 997.134 579.287 996.682C580.445 996.601 581.778 996.474 583.087 996.3C595.707 994.596 611.234 988.964 611.234 988.964C610.429 988.454 609.693 987.842 609.044 987.144C608.424 986.543 607.932 985.822 607.6 985.025C607.267 984.228 607.1 983.372 607.109 982.509C607.294 979.136 601.002 963.131 599.426 959.179L599.067 958.299C599.067 958.299 613.413 943.291 611.026 930.009C611.026 930.009 595.15 920.738 600.376 915.639C605.603 910.539 614.942 895.937 614.942 895.937C614.942 895.937 615.371 841.294 614.942 833.146C614.495 827.48 614.764 821.779 615.742 816.18C615.916 815.345 616.124 814.523 616.344 813.7C623.578 814.792 630.883 815.345 638.199 815.357C640.872 815.357 643.576 815.303 646.31 815.195C646.31 815.967 646.345 816.802 646.415 817.698C647.017 831.234 648.141 854.981 649.057 863.8C650.354 876.432 657.527 910.516 657.527 910.516C657.527 910.516 643.842 919.289 659.914 940.95C659.914 940.95 659.914 948.784 658.848 949.931C657.709 953.648 656.792 957.429 656.102 961.254C655.43 965.322 655.152 969.459 656.241 971.591C658.848 976.714 674.492 976.297 674.492 976.297C674.618 976.267 674.745 976.248 674.874 976.239C677.827 975.927 680.812 976.207 683.656 977.062C686.499 977.918 689.143 979.332 691.433 981.222C697.378 985.997 719.927 983.911 732.153 982.381C736.938 981.767 740.137 981.222 740.137 981.222C740.29 980.68 740.345 980.115 740.299 979.553C740.171 976.552 737.819 969.969 721.874 964.093C721.874 964.093 706.88 954.011 707.088 945.226H706.752H705.026C706.115 945.191 706.88 945.191 706.88 945.191C706.88 945.191 701.005 923.763 703.403 922.013C705.802 920.263 698.618 896.516 698.618 896.516C698.618 896.516 694.504 856.649 694.272 853.868C694.287 851.471 694.654 849.089 695.361 846.799L694.272 824.93C694.272 824.93 694.064 817.663 694.272 815.299C694.249 813.247 694.086 811.199 693.785 809.168C693.681 808.357 693.577 807.511 693.461 806.677C699.081 805.251 702.731 803.942 702.731 803.942L702.082 727.858C706.856 718.587 707.737 698.236 707.714 683.819C707.714 674.548 707.297 667.687 707.297 667.687L713.821 657.037C713.821 657.037 715.327 644.288 712.94 641.495C711.886 640.232 712.361 638.923 713.23 637.845C713.687 637.47 714.171 637.129 714.678 636.825C714.621 636.744 714.571 636.659 714.528 636.57C714.983 636.189 715.467 635.844 715.976 635.539C715.976 635.539 713.658 631.946 715.733 630.428C717.679 631.749 719.418 632.803 720.739 633.557C720.646 634.403 720.553 634.89 720.553 634.89L721.109 633.731C722.384 634.449 723.16 634.89 723.16 634.89C723.16 634.89 733.381 614.527 733.161 611.537C732.941 608.547 740.113 595.892 740.113 595.892C740.113 595.892 740.982 589.24 744.899 586.458C748.816 583.677 747.935 563.523 747.935 563.523C747.935 563.523 749.024 553.023 751.632 548.747C754.239 544.47 749.302 538.653 749.302 538.653ZM553.747 529.717L553.944 534.573C552.785 532.707 551.951 531.374 551.951 531.374L553.747 529.717Z" fill="url(#paint1_linear)"/>
<path d="M723.763 626.082L721.26 636.744C721.26 636.744 701.213 626.487 697.609 613.507C694.006 600.527 703.647 595.579 703.647 595.579L722.338 603.483L723.763 626.082Z" fill="white"/>
<path opacity="0.1" d="M723.763 626.082L721.26 636.744C721.26 636.744 701.213 626.487 697.609 613.507C694.006 600.527 703.647 595.579 703.647 595.579L722.338 603.483L723.763 626.082Z" fill="black"/>
<path d="M611.257 988.952C611.257 988.952 592.717 995.767 579.97 996.624C573.203 997.076 569.646 992.927 567.815 988.929C566.82 986.724 566.171 984.378 565.891 981.975L567.571 963.607L568.452 953.837L595.533 946.791L599.368 958.53L599.727 959.411C601.257 963.34 607.445 979.264 607.259 982.59C607.245 983.45 607.404 984.304 607.729 985.101C608.054 985.898 608.536 986.621 609.148 987.225C609.775 987.888 610.484 988.468 611.257 988.952Z" fill="white"/>
<path d="M737.842 979.611C737.89 980.173 737.835 980.738 737.68 981.28C737.68 981.28 698.027 987.886 689.915 981.28C687.635 979.35 684.977 977.918 682.112 977.074C679.247 976.229 676.237 975.992 673.275 976.378C673.275 976.378 657.933 976.795 655.372 971.742C654.306 969.621 654.584 965.507 655.245 961.462C655.919 957.658 656.817 953.897 657.933 950.198L658.547 949.711L662.197 946.779L704.933 945.516H705.257C705.049 954.254 719.754 964.279 719.754 964.279C735.409 970.073 737.715 976.621 737.842 979.611Z" fill="white"/>
<path opacity="0.1" d="M737.854 979.611C737.895 980.173 737.836 980.738 737.68 981.28C737.68 981.28 698.027 987.886 689.927 981.28C687.645 979.349 684.986 977.915 682.118 977.071C679.251 976.227 676.239 975.991 673.275 976.378C673.275 976.378 657.921 976.795 655.36 971.742C654.306 969.621 654.572 965.507 655.233 961.451C661.143 962.042 670.471 963.514 674.133 967.037C679.672 972.368 689.058 977.699 694.805 978.128C699.348 978.406 726.359 979.264 737.854 979.611Z" fill="black"/>
<path opacity="0.1" d="M611.257 988.952C611.257 988.952 592.717 995.767 579.97 996.624C573.203 997.076 569.646 992.927 567.815 988.929C572.543 990.517 579.09 992.174 582.531 990.656C586.61 988.836 601.072 987.677 609.183 987.179C609.795 987.857 610.492 988.454 611.257 988.952Z" fill="black"/>
<path opacity="0.8" d="M638.767 439.75C623.471 433.805 603.795 414.161 608.708 404.982C609.794 402.664 610.442 400.165 610.62 397.612C610.936 394.144 610.983 390.656 610.759 387.181C610.414 381.486 609.729 375.817 608.708 370.203C608.708 370.203 656.461 371.281 653.68 378.316C652.869 380.39 652.73 383.971 652.962 387.969C653.193 391.968 653.761 396.522 654.364 400.358C655.187 405.608 656.032 409.63 656.032 409.63C656.032 409.63 653.101 413.721 651.397 413.941C649.694 414.161 660.714 448.268 638.767 439.75Z" fill="#FBBEBE"/>
<path opacity="0.1" d="M599.681 959.353L599.322 959.747C585.046 942.479 567.78 964.012 567.78 964.012L567.525 963.549L568.406 953.779L595.486 946.733L599.322 958.473L599.681 959.353Z" fill="black"/>
<path opacity="0.1" d="M705.281 946.733C705.281 946.733 694.852 946.524 689.289 951.438C683.727 956.352 656.844 952.492 658.002 951.438C658.34 950.903 658.547 950.295 658.605 949.665L662.255 946.733L704.991 945.469C705.153 946.281 705.281 946.733 705.281 946.733Z" fill="black"/>
<path d="M617.445 811.127C616.67 813.048 616.08 815.039 615.684 817.072C614.718 822.642 614.449 828.31 614.884 833.946C615.313 842.059 614.884 896.424 614.884 896.424C614.884 896.424 605.719 910.922 600.597 916.033C595.475 921.144 611.026 930.322 611.026 930.322C613.343 943.546 599.299 958.473 599.299 958.473C585.023 941.205 567.757 962.726 567.757 962.726C567.757 962.726 558.371 946.501 556.03 940.706C553.689 934.912 565.196 930.913 569.24 928.549C573.284 926.185 569.032 912.324 569.032 912.324C569.032 912.324 565.625 900.167 561.569 889.076C557.513 877.985 566.042 822.786 566.042 822.786C566.042 822.786 566.482 812.97 567.537 809.551C568.063 807.083 568.169 804.544 567.85 802.041C567.78 801.195 567.699 800.5 567.641 800.013C567.583 799.526 567.537 799.318 567.537 799.318L567.699 799.039L573.493 788.238C573.493 788.238 620.226 804.324 617.445 811.127Z" fill="#303050"/>
<path d="M705.28 945.458C705.28 945.458 694.851 945.238 689.289 950.093C683.727 954.949 656.844 951.16 658.002 950.093C659.161 949.027 659.057 941.147 659.057 941.147C643.286 919.602 656.739 910.864 656.739 910.864C656.739 910.864 649.705 876.965 648.431 864.391C647.539 855.618 646.438 831.941 645.847 818.533C645.592 812.738 645.441 808.74 645.441 808.74L658.211 806.202L659.868 805.877L690.946 799.63C690.946 799.63 691.804 805.425 692.383 810.165C692.676 812.188 692.835 814.229 692.858 816.273C692.661 818.59 692.858 825.857 692.858 825.857L693.924 847.598C693.237 849.881 692.878 852.249 692.858 854.633C693.079 857.414 697.123 897.061 697.123 897.061C697.123 897.061 704.156 920.726 701.758 922.43C699.359 924.134 705.28 945.458 705.28 945.458Z" fill="#303050"/>
<path opacity="0.1" d="M653.68 378.35C652.869 380.425 652.73 384.006 652.962 388.004C646.565 391.856 639.212 393.826 631.747 393.687C624.282 393.547 617.007 391.304 610.759 387.216C610.414 381.521 609.729 375.851 608.708 370.238C608.708 370.238 656.461 371.316 653.68 378.35Z" fill="black"/>
<path d="M672.116 352.761C672.242 363.276 668.187 373.411 660.841 380.935C653.496 388.459 643.463 392.757 632.95 392.883C622.436 393.009 612.303 388.953 604.779 381.607C597.256 374.261 592.959 364.227 592.833 353.712C592.833 353.387 592.833 353.086 592.833 352.761C592.833 342.243 597.01 332.156 604.447 324.719C611.883 317.281 621.969 313.103 632.486 313.103C643.003 313.103 653.089 317.281 660.525 324.719C667.962 332.156 672.14 342.243 672.14 352.761H672.116Z" fill="#FBBEBE"/>
<path opacity="0.1" d="M638.767 439.75C623.471 433.805 603.795 414.161 608.708 404.982C609.794 402.664 610.442 400.165 610.62 397.612L631.559 414.833L644.514 425.461L654.364 400.393C655.187 405.643 656.032 409.664 656.032 409.664C656.032 409.664 653.101 413.755 651.397 413.976C649.694 414.196 660.714 448.268 638.767 439.75Z" fill="black"/>
<path d="M692.916 515.857L675.43 809.644L652.626 811.139L593.563 640.788L603.25 438.545L605.301 395.815L631.559 417.383L644.514 428.01L654.653 402.201L673.507 418.634L692.916 515.857Z" fill="#303050"/>
<path opacity="0.1" d="M617.445 811.127C616.67 813.048 616.08 815.039 615.684 817.072C599.074 814.514 582.942 809.479 567.826 802.134L567.513 801.971L567.618 800.106V799.132L573.412 788.331C573.412 788.331 620.226 804.324 617.445 811.127Z" fill="black"/>
<path opacity="0.1" d="M658.593 817.119C654.352 817.844 650.073 818.335 645.777 818.59C645.522 812.796 645.372 808.798 645.372 808.798L658.211 806.202L658.593 817.119Z" fill="black"/>
<path opacity="0.1" d="M692.43 810.165C684.191 812.309 671.456 814.72 660.077 813.213L659.914 805.877L690.993 799.63C690.993 799.63 691.816 805.379 692.43 810.165Z" fill="black"/>
<path opacity="0.1" d="M659.868 814.557C612.358 822.67 568.846 799.41 568.846 799.41L569.263 791.529C569.263 791.529 570.341 702.188 567.351 695.339C564.362 688.49 562.032 653.803 563.724 648.507C565.416 643.211 557.548 563.245 557.548 563.245L556.273 530.795L509.586 511.823L530.444 468.329C533.261 462.232 535.684 455.961 537.698 449.555C541.325 438.255 558.162 427.164 558.162 427.164C558.162 427.164 575.428 416.085 582.253 416.502C589.078 416.919 598.024 406.698 598.024 406.698C604.629 389.858 610.608 397.426 610.608 397.426C610.608 398.237 610.608 397.426 610.284 399.918C607.966 418.403 647.759 476.812 648.327 477.855L652.162 570.175L655.998 687.006L659.868 814.557Z" fill="black"/>
<path d="M658.593 814.557C611.084 822.67 567.56 799.41 567.56 799.41L567.989 791.529C567.989 791.529 569.055 702.188 566.065 695.339C563.075 688.49 560.746 653.768 562.45 648.426C564.153 643.083 556.239 563.199 556.239 563.199L554.952 530.749L508.277 511.777L529.135 468.283C531.945 462.187 534.368 455.92 536.389 449.52C540.016 438.255 556.911 427.153 556.911 427.153C556.911 427.153 574.176 416.073 580.99 416.49C587.804 416.908 596.796 406.698 596.796 406.698C603.412 389.858 610.701 397.426 610.701 397.426C610.701 398.237 610.006 398.585 610.377 399.918C615.475 417.846 646.577 476.812 647.145 477.855L650.98 570.175L654.735 687.064L658.593 814.557Z" fill="white"/>
<path opacity="0.1" d="M645.789 480.463C640.679 478.331 613.61 447.422 613.61 447.422V440.387C612.625 438.07 606.761 439.484 602.022 441.106L604.061 398.377L606.379 400.3C611.443 418.217 645.233 479.432 645.789 480.463Z" fill="black"/>
<path d="M647.075 477.913C641.953 475.769 614.884 444.873 614.884 444.873V437.826C613.899 435.508 608.047 436.922 603.297 438.545L605.301 395.862L607.619 397.774C612.729 415.668 646.507 476.87 647.075 477.913Z" fill="white"/>
<path opacity="0.1" d="M568.846 632.05C569.483 632.05 601.883 628.643 601.883 628.643C601.883 628.643 621.501 667.235 620.215 676.611C618.928 685.986 616.599 694.308 608.708 692.836C600.817 691.364 566.239 693.995 566.239 693.995L568.846 632.05Z" fill="black"/>
<path d="M567.56 629.489C568.209 629.489 600.608 626.082 600.608 626.082C600.608 626.082 620.215 664.732 618.94 674.003C617.665 683.275 615.313 691.7 607.433 690.228C599.554 688.756 564.953 691.387 564.953 691.387L567.56 629.489Z" fill="white"/>
<path d="M591.975 611.421C591.975 611.421 621.71 627.414 622.347 632.282C622.984 637.149 607.213 630.15 603.806 629.292C601.563 628.759 599.281 628.402 596.981 628.226L574.258 628.84L591.975 611.421Z" fill="#FBBEBE"/>
<path opacity="0.1" d="M637.48 482.456C639.208 482.456 640.609 481.055 640.609 479.327C640.609 477.599 639.208 476.198 637.48 476.198C635.753 476.198 634.352 477.599 634.352 479.327C634.352 481.055 635.753 482.456 637.48 482.456Z" fill="black"/>
<path d="M637.48 481.182C639.208 481.182 640.609 479.781 640.609 478.052C640.609 476.324 639.208 474.923 637.48 474.923C635.753 474.923 634.352 476.324 634.352 478.052C634.352 479.781 635.753 481.182 637.48 481.182Z" fill="#3F3D56"/>
<path opacity="0.1" d="M643.24 617.911C644.967 617.911 646.368 616.51 646.368 614.782C646.368 613.054 644.967 611.653 643.24 611.653C641.512 611.653 640.111 613.054 640.111 614.782C640.111 616.51 641.512 617.911 643.24 617.911Z" fill="black"/>
<path d="M643.24 616.625C644.967 616.625 646.368 615.224 646.368 613.496C646.368 611.768 644.967 610.367 643.24 610.367C641.512 610.367 640.111 611.768 640.111 613.496C640.111 615.224 641.512 616.625 643.24 616.625Z" fill="#3F3D56"/>
<path opacity="0.1" d="M640.609 550.184C642.337 550.184 643.738 548.783 643.738 547.055C643.738 545.327 642.337 543.926 640.609 543.926C638.881 543.926 637.48 545.327 637.48 547.055C637.48 548.783 638.881 550.184 640.609 550.184Z" fill="black"/>
<path d="M640.609 548.909C642.337 548.909 643.738 547.508 643.738 545.78C643.738 544.052 642.337 542.651 640.609 542.651C638.881 542.651 637.48 544.052 637.48 545.78C637.48 547.508 638.881 548.909 640.609 548.909Z" fill="#3F3D56"/>
<path d="M712.731 627.577C712.731 627.577 714.864 630.775 712.731 632.212C710.599 633.65 712.94 637.335 712.94 637.335C712.94 637.335 707.621 640.441 709.962 643.257C712.303 646.073 710.819 658.717 710.819 658.717L704.423 669.368C704.423 669.368 704.805 676.194 704.829 685.419C704.829 699.812 703.983 720.047 699.301 729.272L699.927 804.962C699.927 804.962 677.528 813.155 658.779 810.652L655.998 689.197C655.998 689.197 660.053 620.322 661.548 607.11C662.423 600.251 662.78 593.336 662.614 586.423C662.614 586.423 661.977 565.748 659.833 556.164C659.833 556.164 657.516 514.582 657.284 503.074C657.18 497.569 657.469 481.506 657.794 466.231C658.153 449.531 658.559 433.782 658.559 433.782L654.329 400.3C654.329 400.3 658.559 399.883 659.833 401.575C660.404 402.109 661.025 402.586 661.687 403.001C668.999 407.938 694.794 423.119 694.794 423.119C694.794 423.119 709.07 428.798 712.488 436.934C715.906 445.069 718.282 450.841 719.939 453.159C721.596 455.477 722.5 466.371 722.5 466.371C722.5 466.371 727.413 486.42 731.249 489.816C735.084 493.211 737.842 514.767 737.842 514.767L703.948 541.422C703.948 541.422 700.97 585.763 700.332 587.478C699.695 589.193 712.731 627.577 712.731 627.577Z" fill="white"/>
<path d="M714.018 627.577C714.018 627.577 716.138 630.775 714.018 632.212C711.897 633.65 714.215 637.335 714.215 637.335C714.215 637.335 708.896 640.441 711.237 643.257C713.577 646.073 712.094 658.717 712.094 658.717L705.721 669.368C705.721 669.368 706.103 676.194 706.138 685.419C706.138 699.812 705.292 720.047 700.611 729.272L701.248 804.962C701.248 804.962 678.849 813.155 660.1 810.652L657.33 689.197C657.33 689.197 661.374 620.322 662.881 607.11C663.757 600.251 664.109 593.336 663.935 586.423C663.935 586.423 663.298 565.748 661.166 556.164C661.166 556.164 658.848 514.582 658.605 503.074C658.501 497.569 658.79 481.506 659.115 466.231C659.474 449.531 659.88 433.782 659.88 433.782L654.294 399.848C654.294 399.848 659.88 399.848 661.166 401.575C661.731 402.115 662.353 402.593 663.02 403.001C670.32 407.938 696.115 423.119 696.115 423.119C696.115 423.119 710.356 428.798 713.832 436.934C717.309 445.07 719.626 450.841 721.283 453.159C722.94 455.477 723.844 466.371 723.844 466.371C723.844 466.371 728.757 486.42 732.593 489.816C736.429 493.211 739.198 514.767 739.198 514.767L705.304 541.422C705.304 541.422 702.326 585.763 701.677 587.478C701.028 589.193 714.018 627.577 714.018 627.577Z" fill="white"/>
<path opacity="0.1" d="M673.426 443.621L676.497 452.545L660.378 468.77C660.737 452.069 661.143 436.32 661.143 436.32L655.557 402.398C655.557 402.398 661.143 402.398 662.429 404.125C662.995 404.664 663.616 405.142 664.283 405.55L677.98 445.058L673.426 443.621Z" fill="black"/>
<path d="M672.116 441.06L675.187 449.972L659.08 466.197C659.428 449.497 659.845 433.747 659.845 433.747L654.248 399.814C654.248 399.814 659.845 399.814 661.119 401.54C661.688 402.077 662.309 402.554 662.974 402.966L676.751 442.508L672.116 441.06Z" fill="white"/>
<path opacity="0.1" d="M672.116 352.761C672.121 356.937 671.464 361.087 670.17 365.058C669.951 365.094 669.728 365.086 669.513 365.034C669.298 364.983 669.096 364.888 668.918 364.756C668.605 354.326 663.483 344.521 657.168 336.189C655.392 333.675 653.243 331.448 650.795 329.583C648.317 327.723 645.235 326.851 642.15 327.138C638.674 327.613 635.603 329.977 632.092 330.278C627.457 330.661 623.309 327.45 618.708 327.3C616.838 327.315 614.992 327.731 613.295 328.518C611.598 329.306 610.09 330.447 608.87 331.866C606.451 334.719 604.655 338.047 603.598 341.636C601.776 347.081 600.784 352.769 600.655 358.51C600.597 361.755 600.284 365.822 597.271 367.004C597.499 364.62 597.228 362.214 596.476 359.939C595.724 357.665 594.507 355.571 592.902 353.793L592.833 353.712C592.833 353.387 592.833 353.086 592.833 352.761C592.833 342.243 597.01 332.156 604.447 324.719C611.883 317.281 621.969 313.103 632.486 313.103C643.003 313.103 653.089 317.281 660.525 324.719C667.962 332.156 672.14 342.243 672.14 352.761H672.116Z" fill="black"/>
<path d="M648.941 289.797C642.919 286.964 636.071 286.428 629.682 288.29C626.472 289.241 623.448 290.782 620.191 291.559C613.239 293.239 605.127 291.419 599.16 295.487C595.846 297.805 593.852 301.467 591.998 305.037L587.363 313.856C584.837 318.689 582.288 323.603 581.233 328.922C580.179 334.242 580.816 340.199 584.188 344.487C586.633 347.593 590.272 349.551 592.937 352.483C594.538 354.271 595.752 356.371 596.502 358.65C597.252 360.93 597.521 363.34 597.294 365.73C600.307 364.571 600.608 360.48 600.678 357.235C600.808 351.494 601.8 345.806 603.621 340.361C604.678 336.772 606.474 333.445 608.893 330.591C610.112 329.171 611.621 328.028 613.317 327.238C615.014 326.449 616.86 326.031 618.731 326.013C623.367 326.176 627.527 329.386 632.115 328.992C635.592 328.702 638.674 326.338 642.173 325.863C645.259 325.571 648.342 326.443 650.818 328.308C653.268 330.167 655.414 332.396 657.18 334.914C663.507 343.258 668.64 353.016 668.941 363.481C670.251 364.432 672.139 363.18 672.788 361.697C673.437 360.213 673.46 358.475 674.283 357.061C675.233 355.427 677.053 354.546 678.478 353.318C682.093 350.2 682.997 344.95 682.858 340.187C682.719 335.424 681.792 330.591 682.696 325.909C683.241 323.047 684.469 320.346 685.141 317.507C685.813 314.667 685.894 311.48 684.307 309.035C681.989 305.454 677.111 304.735 672.858 304.399C668.026 303.982 663.704 304.515 660.621 300.448C659.171 298.327 657.543 296.335 655.754 294.491C655.117 293.876 648.941 290.052 648.941 289.797Z" fill="#512E39"/>
<path opacity="0.1" d="M522.959 534.191L510.861 511.812L507.025 546.348C507.025 546.348 509.158 561.692 508.729 564.045C508.3 566.397 517.466 587.49 517.466 587.49C517.466 587.49 547.745 641.437 560.109 644.207L601.825 614.353L590.747 600.284C590.747 600.284 586.911 598.789 585.95 600.284C585.95 600.284 565.37 564.891 563.249 562.341C561.129 559.791 561.534 554.657 561.534 554.657C561.534 554.657 558.336 551.25 559.402 548.051C560.468 544.853 553.284 533.773 553.284 533.773L559.889 527.596L522.959 534.191Z" fill="black"/>
<path d="M511.498 509.251L508.3 511.812L504.464 546.348C504.464 546.348 506.596 561.692 506.168 564.045C505.739 566.397 514.917 587.49 514.917 587.49C514.917 587.49 545.184 641.437 557.548 644.207L599.333 614.353L588.244 600.284C588.244 600.284 584.408 598.789 583.447 600.284C583.447 600.284 562.878 564.891 560.746 562.341C558.614 559.791 559.043 554.657 559.043 554.657C559.043 554.657 555.845 551.25 556.911 548.051C557.977 544.853 550.723 533.774 550.723 533.774L557.328 527.596L511.498 509.251Z" fill="white"/>
<path opacity="0.1" d="M709.962 644.59C712.28 647.406 710.82 660.061 710.82 660.061L704.423 670.642C704.423 670.642 704.805 677.48 704.829 686.705L694.075 690.066C693.102 690.369 692.07 690.436 691.066 690.259C690.061 690.083 689.114 689.669 688.302 689.052C687.49 688.435 686.837 687.633 686.398 686.713C685.959 685.792 685.747 684.781 685.778 683.761L687.644 623.961L712.731 633.545C710.599 635.029 712.94 638.668 712.94 638.668C712.94 638.668 707.621 641.774 709.962 644.59Z" fill="black"/>
<path d="M711.237 643.315C713.554 646.12 712.094 658.775 712.094 658.775L705.721 669.367C705.721 669.367 706.103 676.194 706.138 685.419L695.188 688.837C694.237 689.136 693.228 689.202 692.246 689.031C691.265 688.86 690.338 688.456 689.544 687.854C688.75 687.251 688.112 686.468 687.683 685.568C687.253 684.669 687.045 683.68 687.076 682.683L688.942 622.674L714.018 632.282C711.874 633.765 714.215 637.404 714.215 637.404C714.215 637.404 708.896 640.499 711.237 643.315Z" fill="white"/>
<path d="M719.557 614.782C719.557 614.782 717.853 625.665 713.589 626.302C709.325 626.939 707.413 643.906 703.16 643.315C698.907 642.724 701.723 627.53 701.874 624.587C702.024 621.643 697.239 609.451 700.808 606.681C704.377 603.912 715.733 606.681 715.733 606.681L719.557 614.782Z" fill="#FBBEBE"/>
<path opacity="0.1" d="M728.572 530.992L736.602 514.767C736.602 514.767 739.812 527.133 739.812 533.739C739.812 540.345 744.285 540.994 744.285 540.994C744.285 540.994 749.187 546.788 746.603 551.018C744.018 555.248 742.987 565.725 742.987 565.725C742.987 565.725 743.833 585.763 739.997 588.533C736.162 591.302 735.304 597.92 735.304 597.92C735.304 597.92 728.271 610.494 728.491 613.484C728.711 616.474 718.688 636.721 718.688 636.721C718.688 636.721 723.589 611.56 695.025 600.69C695.025 600.69 694.805 592.16 696.937 589.819C699.069 587.478 702.395 586.342 700.309 574.568C698.224 562.793 699.707 548.596 699.707 545.757C699.707 542.917 706.103 525.221 706.103 525.221L728.572 530.992Z" fill="black"/>
<path d="M732.141 512.449L739.163 514.767C739.163 514.767 742.373 527.133 742.373 533.739C742.373 540.345 746.846 540.994 746.846 540.994C746.846 540.994 751.747 546.788 749.163 551.018C746.579 555.248 745.536 565.725 745.536 565.725C745.536 565.725 746.394 585.763 742.558 588.533C738.723 591.302 737.923 597.92 737.923 597.92C737.923 597.92 730.889 610.494 731.11 613.484C731.33 616.474 721.295 636.721 721.295 636.721C721.295 636.721 726.197 611.56 697.633 600.69C697.633 600.69 697.424 592.16 699.556 589.819C701.688 587.478 705.014 586.342 702.928 574.568C700.842 562.793 702.326 548.596 702.326 545.757C702.326 542.917 708.722 525.221 708.722 525.221L732.141 512.449Z" fill="white"/>
<path opacity="0.1" d="M577.004 932.988C577.004 932.988 588.198 925.953 595.544 931.064C602.891 936.175 577.004 932.988 577.004 932.988Z" fill="black"/>
<path opacity="0.1" d="M664.005 911.235C664.005 911.235 673.912 909.96 682.232 918.918C690.552 927.877 664.005 911.235 664.005 911.235Z" fill="black"/>
<g opacity="0.1">
<path opacity="0.1" d="M678.478 350.768C677.053 352.008 675.222 352.877 674.272 354.511C673.461 355.914 673.437 357.652 672.788 359.147C672.14 360.642 670.251 361.882 668.93 360.932C668.628 350.501 663.495 340.709 657.18 332.364C655.414 329.85 653.268 327.625 650.818 325.77C648.34 323.901 645.253 323.025 642.162 323.313C638.686 323.788 635.626 326.152 632.115 326.454C627.48 326.836 623.32 323.626 618.72 323.475C616.851 323.489 615.006 323.904 613.311 324.692C611.616 325.48 610.11 326.622 608.893 328.041C606.474 330.895 604.679 334.223 603.621 337.811C601.8 343.257 600.808 348.945 600.678 354.685C600.608 357.919 600.307 361.952 597.317 363.157C597.387 364.017 597.387 364.881 597.317 365.741C600.342 364.582 600.643 360.491 600.712 357.246C600.843 351.506 601.835 345.818 603.656 340.372C604.713 336.784 606.509 333.456 608.928 330.603C610.145 329.183 611.652 328.041 613.347 327.251C615.041 326.462 616.885 326.044 618.755 326.025C623.39 326.187 627.561 329.397 632.15 329.003C635.626 328.714 638.709 326.349 642.197 325.874C645.286 325.583 648.373 326.455 650.853 328.32C653.303 330.179 655.449 332.407 657.214 334.925C663.53 343.27 668.663 353.028 668.965 363.493C670.286 364.443 672.174 363.192 672.823 361.708C673.472 360.225 673.495 358.486 674.306 357.073C675.257 355.438 677.088 354.558 678.513 353.329C682.128 350.212 683.032 344.962 682.893 340.199C682.893 340.048 682.893 339.909 682.893 339.758C682.661 343.907 681.56 348.114 678.478 350.768Z" fill="black"/>
<path opacity="0.1" d="M592.925 349.957C590.272 347.025 586.633 345.054 584.188 341.949C582.123 339.207 580.947 335.899 580.816 332.469C580.453 336.758 581.65 341.034 584.188 344.51C586.633 347.616 590.272 349.574 592.925 352.506C595.489 355.373 597.029 359.008 597.306 362.844C597.48 360.512 597.182 358.168 596.429 355.954C595.677 353.739 594.485 351.7 592.925 349.957Z" fill="black"/>
<path opacity="0.1" d="M685.141 314.957C684.457 317.797 683.241 320.497 682.684 323.359C682.35 325.295 682.23 327.262 682.325 329.224C682.363 328.115 682.484 327.011 682.684 325.921C683.241 323.058 684.457 320.358 685.141 317.518C685.534 315.951 685.663 314.33 685.524 312.72C685.449 313.474 685.321 314.222 685.141 314.957Z" fill="black"/>
</g>
</g>
<defs>
<linearGradient id="paint0_linear" x1="167.446" y1="967.35" x2="167.446" y2="297.898" gradientUnits="userSpaceOnUse">
<stop stop-color="#808080" stop-opacity="0.25"/>
<stop offset="0.54" stop-color="#808080" stop-opacity="0.12"/>
<stop offset="1" stop-color="#808080" stop-opacity="0.1"/>
</linearGradient>
<linearGradient id="paint1_linear" x1="220119" y1="627384" x2="220119" y2="188590" gradientUnits="userSpaceOnUse">
<stop stop-color="#818181" stop-opacity="0.25"/>
<stop offset="0.242409" stop-color="#808080" stop-opacity="0.154024"/>
<stop offset="0.471589" stop-color="#808080" stop-opacity="0.136469"/>
<stop offset="0.54" stop-color="#808080" stop-opacity="0.12"/>
<stop offset="1" stop-color="#808080" stop-opacity="0.1"/>
</linearGradient>
<clipPath id="clip0">
<rect width="1353" height="1000" fill="white" transform="translate(-372 -1)"/>
</clipPath>
</defs>
</svg>
