<svg width="342" height="194" viewBox="0 0 342 194" fill="none" xmlns="http://www.w3.org/2000/svg">
<g filter="url(#filter0_d)">
<path d="M29.376 25.528C36.864 25.528 42.6 26.872 46.584 29.56C50.568 32.2 52.56 36.328 52.56 41.944C52.56 45.448 51.744 48.304 50.112 50.512C48.528 52.672 46.224 54.376 43.2 55.624C44.208 56.872 45.264 58.312 46.368 59.944C47.472 61.528 48.552 63.208 49.608 64.984C50.712 66.712 51.768 68.536 52.776 70.456C53.784 72.328 54.72 74.176 55.584 76H42.984C42.072 74.368 41.136 72.712 40.176 71.032C39.264 69.352 38.304 67.72 37.296 66.136C36.336 64.552 35.376 63.064 34.416 61.672C33.456 60.232 32.496 58.936 31.536 57.784H25.992V76H14.76V26.824C17.208 26.344 19.728 26.008 22.32 25.816C24.96 25.624 27.312 25.528 29.376 25.528ZM30.024 35.104C29.208 35.104 28.464 35.128 27.792 35.176C27.168 35.224 26.568 35.272 25.992 35.32V48.856H29.16C33.384 48.856 36.408 48.328 38.232 47.272C40.056 46.216 40.968 44.416 40.968 41.872C40.968 39.424 40.032 37.696 38.16 36.688C36.336 35.632 33.624 35.104 30.024 35.104ZM58.4353 57.352C58.4353 53.992 58.9393 51.064 59.9473 48.568C61.0033 46.024 62.3713 43.912 64.0513 42.232C65.7313 40.552 67.6513 39.28 69.8113 38.416C72.0193 37.552 74.2753 37.12 76.5793 37.12C81.9553 37.12 86.2033 38.776 89.3233 42.088C92.4433 45.352 94.0033 50.176 94.0033 56.56C94.0033 57.184 93.9793 57.88 93.9313 58.648C93.8833 59.368 93.8353 60.016 93.7873 60.592H69.4513C69.6913 62.8 70.7233 64.552 72.5473 65.848C74.3713 67.144 76.8193 67.792 79.8913 67.792C81.8593 67.792 83.7793 67.624 85.6513 67.288C87.5713 66.904 89.1313 66.448 90.3313 65.92L91.7713 74.632C91.1953 74.92 90.4273 75.208 89.4673 75.496C88.5073 75.784 87.4273 76.024 86.2273 76.216C85.0753 76.456 83.8273 76.648 82.4833 76.792C81.1393 76.936 79.7953 77.008 78.4513 77.008C75.0433 77.008 72.0673 76.504 69.5233 75.496C67.0273 74.488 64.9393 73.12 63.2593 71.392C61.6273 69.616 60.4033 67.528 59.5873 65.128C58.8193 62.728 58.4353 60.136 58.4353 57.352ZM83.6353 53.248C83.5873 52.336 83.4193 51.448 83.1313 50.584C82.8913 49.72 82.4833 48.952 81.9073 48.28C81.3793 47.608 80.6833 47.056 79.8193 46.624C79.0033 46.192 77.9713 45.976 76.7233 45.976C75.5233 45.976 74.4913 46.192 73.6273 46.624C72.7633 47.008 72.0433 47.536 71.4673 48.208C70.8913 48.88 70.4353 49.672 70.0993 50.584C69.8113 51.448 69.5953 52.336 69.4513 53.248H83.6353ZM113.154 68.296C115.122 68.296 116.514 68.104 117.33 67.72C118.146 67.336 118.554 66.592 118.554 65.488C118.554 64.624 118.026 63.88 116.97 63.256C115.914 62.584 114.306 61.84 112.146 61.024C110.466 60.4 108.93 59.752 107.538 59.08C106.194 58.408 105.042 57.616 104.082 56.704C103.122 55.744 102.378 54.616 101.85 53.32C101.322 52.024 101.058 50.464 101.058 48.64C101.058 45.088 102.378 42.28 105.018 40.216C107.658 38.152 111.282 37.12 115.89 37.12C118.194 37.12 120.402 37.336 122.514 37.768C124.626 38.152 126.306 38.584 127.554 39.064L125.682 47.416C124.434 46.984 123.066 46.6 121.578 46.264C120.138 45.928 118.506 45.76 116.682 45.76C113.322 45.76 111.642 46.696 111.642 48.568C111.642 49 111.714 49.384 111.858 49.72C112.002 50.056 112.29 50.392 112.722 50.728C113.154 51.016 113.73 51.352 114.45 51.736C115.218 52.072 116.178 52.456 117.33 52.888C119.682 53.752 121.626 54.616 123.162 55.48C124.698 56.296 125.898 57.208 126.762 58.216C127.674 59.176 128.298 60.256 128.634 61.456C129.018 62.656 129.21 64.048 129.21 65.632C129.21 69.376 127.794 72.208 124.962 74.128C122.178 76.048 118.218 77.008 113.082 77.008C109.722 77.008 106.914 76.72 104.658 76.144C102.45 75.568 100.914 75.088 100.05 74.704L101.85 65.992C103.674 66.712 105.546 67.288 107.466 67.72C109.386 68.104 111.282 68.296 113.154 68.296ZM135.428 57.352C135.428 53.992 135.932 51.064 136.939 48.568C137.996 46.024 139.364 43.912 141.044 42.232C142.724 40.552 144.644 39.28 146.804 38.416C149.012 37.552 151.268 37.12 153.572 37.12C158.948 37.12 163.196 38.776 166.316 42.088C169.436 45.352 170.996 50.176 170.996 56.56C170.996 57.184 170.972 57.88 170.924 58.648C170.876 59.368 170.828 60.016 170.78 60.592H146.444C146.684 62.8 147.716 64.552 149.54 65.848C151.364 67.144 153.812 67.792 156.884 67.792C158.852 67.792 160.772 67.624 162.644 67.288C164.564 66.904 166.124 66.448 167.324 65.92L168.764 74.632C168.188 74.92 167.42 75.208 166.46 75.496C165.5 75.784 164.42 76.024 163.22 76.216C162.068 76.456 160.82 76.648 159.476 76.792C158.132 76.936 156.788 77.008 155.444 77.008C152.036 77.008 149.06 76.504 146.516 75.496C144.02 74.488 141.932 73.12 140.252 71.392C138.62 69.616 137.396 67.528 136.58 65.128C135.812 62.728 135.428 60.136 135.428 57.352ZM160.628 53.248C160.58 52.336 160.412 51.448 160.124 50.584C159.884 49.72 159.476 48.952 158.9 48.28C158.372 47.608 157.676 47.056 156.812 46.624C155.996 46.192 154.964 45.976 153.716 45.976C152.516 45.976 151.484 46.192 150.62 46.624C149.756 47.008 149.036 47.536 148.46 48.208C147.884 48.88 147.428 49.672 147.092 50.584C146.804 51.448 146.588 52.336 146.444 53.248H160.628ZM202.098 47.632C201.138 47.392 200.01 47.152 198.714 46.912C197.418 46.624 196.026 46.48 194.538 46.48C193.866 46.48 193.05 46.552 192.09 46.696C191.178 46.792 190.482 46.912 190.002 47.056V76H179.274V40.144C181.194 39.472 183.45 38.848 186.042 38.272C188.682 37.648 191.61 37.336 194.826 37.336C195.402 37.336 196.098 37.384 196.914 37.48C197.73 37.528 198.546 37.624 199.362 37.768C200.178 37.864 200.994 38.008 201.81 38.2C202.626 38.344 203.322 38.536 203.898 38.776L202.098 47.632ZM222.195 76C219.747 71.2 217.251 65.584 214.707 59.152C212.211 52.72 209.835 45.712 207.579 38.128H218.955C219.435 40 219.987 42.04 220.611 44.248C221.283 46.408 221.955 48.616 222.627 50.872C223.347 53.08 224.043 55.24 224.715 57.352C225.435 59.464 226.131 61.384 226.803 63.112C227.427 61.384 228.099 59.464 228.819 57.352C229.539 55.24 230.235 53.08 230.907 50.872C231.627 48.616 232.299 46.408 232.923 44.248C233.595 42.04 234.171 40 234.651 38.128H245.739C243.483 45.712 241.083 52.72 238.539 59.152C236.043 65.584 233.571 71.2 231.123 76H222.195ZM248.701 57.352C248.701 53.992 249.205 51.064 250.213 48.568C251.269 46.024 252.637 43.912 254.317 42.232C255.997 40.552 257.917 39.28 260.077 38.416C262.285 37.552 264.541 37.12 266.845 37.12C272.221 37.12 276.469 38.776 279.589 42.088C282.709 45.352 284.269 50.176 284.269 56.56C284.269 57.184 284.245 57.88 284.197 58.648C284.149 59.368 284.101 60.016 284.053 60.592H259.717C259.957 62.8 260.989 64.552 262.813 65.848C264.637 67.144 267.085 67.792 270.157 67.792C272.125 67.792 274.045 67.624 275.917 67.288C277.837 66.904 279.397 66.448 280.597 65.92L282.037 74.632C281.461 74.92 280.693 75.208 279.733 75.496C278.773 75.784 277.693 76.024 276.493 76.216C275.341 76.456 274.093 76.648 272.749 76.792C271.405 76.936 270.061 77.008 268.717 77.008C265.309 77.008 262.333 76.504 259.789 75.496C257.293 74.488 255.205 73.12 253.525 71.392C251.893 69.616 250.669 67.528 249.853 65.128C249.085 62.728 248.701 60.136 248.701 57.352ZM273.901 53.248C273.853 52.336 273.685 51.448 273.397 50.584C273.157 49.72 272.749 48.952 272.173 48.28C271.645 47.608 270.949 47.056 270.085 46.624C269.269 46.192 268.237 45.976 266.989 45.976C265.789 45.976 264.757 46.192 263.893 46.624C263.029 47.008 262.309 47.536 261.733 48.208C261.157 48.88 260.701 49.672 260.365 50.584C260.077 51.448 259.861 52.336 259.717 53.248H273.901ZM301.692 56.776C301.692 60.088 302.436 62.752 303.924 64.768C305.412 66.784 307.62 67.792 310.548 67.792C311.508 67.792 312.396 67.768 313.212 67.72C314.028 67.624 314.7 67.528 315.228 67.432V47.92C314.556 47.488 313.668 47.128 312.564 46.84C311.508 46.552 310.428 46.408 309.324 46.408C304.236 46.408 301.692 49.864 301.692 56.776ZM325.956 74.776C324.996 75.064 323.892 75.352 322.644 75.64C321.396 75.88 320.076 76.096 318.684 76.288C317.34 76.48 315.948 76.624 314.508 76.72C313.116 76.864 311.772 76.936 310.476 76.936C307.356 76.936 304.572 76.48 302.124 75.568C299.676 74.656 297.612 73.36 295.932 71.68C294.252 69.952 292.956 67.888 292.044 65.488C291.18 63.04 290.748 60.304 290.748 57.28C290.748 54.208 291.132 51.448 291.9 49C292.668 46.504 293.772 44.392 295.212 42.664C296.652 40.936 298.404 39.616 300.468 38.704C302.58 37.792 304.98 37.336 307.668 37.336C309.156 37.336 310.476 37.48 311.628 37.768C312.828 38.056 314.028 38.464 315.228 38.992V21.856L325.956 20.128V74.776ZM31.392 159.648C28.656 159.648 25.92 159.552 23.184 159.36C20.496 159.216 17.688 158.832 14.76 158.208V109.824C17.064 109.392 19.584 109.08 22.32 108.888C25.056 108.648 27.6 108.528 29.952 108.528C33.12 108.528 36.024 108.768 38.664 109.248C41.352 109.68 43.656 110.448 45.576 111.552C47.496 112.656 48.984 114.12 50.04 115.944C51.144 117.72 51.696 119.928 51.696 122.568C51.696 126.552 49.776 129.696 45.936 132C49.104 133.2 51.264 134.832 52.416 136.896C53.568 138.96 54.144 141.288 54.144 143.88C54.144 149.112 52.224 153.048 48.384 155.688C44.592 158.328 38.928 159.648 31.392 159.648ZM25.704 137.256V150.144C26.52 150.24 27.408 150.312 28.368 150.36C29.328 150.408 30.384 150.432 31.536 150.432C34.896 150.432 37.608 149.952 39.672 148.992C41.736 148.032 42.768 146.256 42.768 143.664C42.768 141.36 41.904 139.728 40.176 138.768C38.448 137.76 35.976 137.256 32.76 137.256H25.704ZM25.704 128.688H31.176C34.632 128.688 37.104 128.256 38.592 127.392C40.08 126.48 40.824 125.04 40.824 123.072C40.824 121.056 40.056 119.64 38.52 118.824C36.984 118.008 34.728 117.6 31.752 117.6C30.792 117.6 29.76 117.624 28.656 117.672C27.552 117.672 26.568 117.72 25.704 117.816V128.688ZM77.535 159.72C74.415 159.672 71.871 159.336 69.903 158.712C67.983 158.088 66.447 157.224 65.295 156.12C64.191 154.968 63.423 153.6 62.991 152.016C62.607 150.384 62.415 148.56 62.415 146.544V104.856L73.143 103.128V144.384C73.143 145.344 73.215 146.208 73.359 146.976C73.503 147.744 73.767 148.392 74.151 148.92C74.583 149.448 75.183 149.88 75.951 150.216C76.719 150.552 77.751 150.768 79.047 150.864L77.535 159.72ZM120.62 139.992C120.62 142.968 120.188 145.704 119.324 148.2C118.46 150.648 117.212 152.76 115.58 154.536C113.948 156.264 111.98 157.608 109.676 158.568C107.42 159.528 104.876 160.008 102.044 160.008C99.2603 160.008 96.7163 159.528 94.4123 158.568C92.1563 157.608 90.2123 156.264 88.5803 154.536C86.9483 152.76 85.6763 150.648 84.7643 148.2C83.8523 145.704 83.3963 142.968 83.3963 139.992C83.3963 137.016 83.8523 134.304 84.7643 131.856C85.7243 129.408 87.0203 127.32 88.6523 125.592C90.3323 123.864 92.3003 122.52 94.5563 121.56C96.8603 120.6 99.3563 120.12 102.044 120.12C104.78 120.12 107.276 120.6 109.532 121.56C111.836 122.52 113.804 123.864 115.436 125.592C117.068 127.32 118.34 129.408 119.252 131.856C120.164 134.304 120.62 137.016 120.62 139.992ZM109.676 139.992C109.676 136.68 109.004 134.088 107.66 132.216C106.364 130.296 104.492 129.336 102.044 129.336C99.5963 129.336 97.7003 130.296 96.3563 132.216C95.0123 134.088 94.3403 136.68 94.3403 139.992C94.3403 143.304 95.0123 145.944 96.3563 147.912C97.7003 149.832 99.5963 150.792 102.044 150.792C104.492 150.792 106.364 149.832 107.66 147.912C109.004 145.944 109.676 143.304 109.676 139.992ZM164.355 139.992C164.355 142.968 163.923 145.704 163.059 148.2C162.195 150.648 160.947 152.76 159.315 154.536C157.683 156.264 155.715 157.608 153.411 158.568C151.155 159.528 148.611 160.008 145.779 160.008C142.995 160.008 140.451 159.528 138.147 158.568C135.891 157.608 133.947 156.264 132.315 154.536C130.683 152.76 129.411 150.648 128.499 148.2C127.587 145.704 127.131 142.968 127.131 139.992C127.131 137.016 127.587 134.304 128.499 131.856C129.459 129.408 130.755 127.32 132.387 125.592C134.067 123.864 136.035 122.52 138.291 121.56C140.595 120.6 143.091 120.12 145.779 120.12C148.515 120.12 151.011 120.6 153.267 121.56C155.571 122.52 157.539 123.864 159.171 125.592C160.803 127.32 162.075 129.408 162.987 131.856C163.899 134.304 164.355 137.016 164.355 139.992ZM153.411 139.992C153.411 136.68 152.739 134.088 151.395 132.216C150.099 130.296 148.227 129.336 145.779 129.336C143.331 129.336 141.435 130.296 140.091 132.216C138.747 134.088 138.075 136.68 138.075 139.992C138.075 143.304 138.747 145.944 140.091 147.912C141.435 149.832 143.331 150.792 145.779 150.792C148.227 150.792 150.099 149.832 151.395 147.912C152.739 145.944 153.411 143.304 153.411 139.992ZM181.809 139.776C181.809 143.088 182.553 145.752 184.041 147.768C185.529 149.784 187.737 150.792 190.665 150.792C191.625 150.792 192.513 150.768 193.329 150.72C194.145 150.624 194.817 150.528 195.345 150.432V130.92C194.673 130.488 193.785 130.128 192.681 129.84C191.625 129.552 190.545 129.408 189.441 129.408C184.353 129.408 181.809 132.864 181.809 139.776ZM206.073 157.776C205.113 158.064 204.009 158.352 202.761 158.64C201.513 158.88 200.193 159.096 198.801 159.288C197.457 159.48 196.065 159.624 194.625 159.72C193.233 159.864 191.889 159.936 190.593 159.936C187.473 159.936 184.689 159.48 182.241 158.568C179.793 157.656 177.729 156.36 176.049 154.68C174.369 152.952 173.073 150.888 172.161 148.488C171.297 146.04 170.865 143.304 170.865 140.28C170.865 137.208 171.249 134.448 172.017 132C172.785 129.504 173.889 127.392 175.329 125.664C176.769 123.936 178.521 122.616 180.585 121.704C182.697 120.792 185.097 120.336 187.785 120.336C189.273 120.336 190.593 120.48 191.745 120.768C192.945 121.056 194.145 121.464 195.345 121.992V104.856L206.073 103.128V157.776Z" fill="#FA3A3A"/>
</g>
<g filter="url(#filter1_d)">
<rect x="4" width="334" height="8" fill="#FA3A3A"/>
</g>
<g filter="url(#filter2_d)">
<rect x="4" y="178" width="334" height="8" fill="#FA3A3A"/>
</g>
<g filter="url(#filter3_d)">
<path d="M259.438 98.6961C259.89 97.9912 260.821 97.7896 261.519 98.246C261.697 98.3626 261.849 98.5158 261.964 98.6959C262.801 100.207 282.408 135.823 282.409 146.188C282.41 158.299 272.694 168.117 260.708 168.118C248.722 168.119 239.005 158.302 239.004 146.192C239.003 135.827 258.605 100.208 259.438 98.6961Z" fill="#D32F2F"/>
</g>
<path d="M260.541 159.191C268.009 159.191 274.063 153.472 274.062 146.419C274.062 145.635 273.389 145 272.559 145C271.73 145 271.057 145.636 271.057 146.419C271.057 151.905 266.349 156.353 260.54 156.353C259.711 156.353 259.038 156.989 259.038 157.772C259.038 158.556 259.711 159.191 260.541 159.191Z" fill="#E57373"/>
<g filter="url(#filter4_d)">
<path fill-rule="evenodd" clip-rule="evenodd" d="M302.892 167.874C303.589 168.33 304.521 168.129 304.973 167.424C305.806 165.912 325.408 130.293 325.407 119.928C325.406 107.818 315.689 98.0008 303.703 98.0017C291.717 98.0026 282.001 107.821 282.002 119.932C282.002 130.297 301.61 165.913 302.446 167.424C302.562 167.604 302.714 167.757 302.892 167.874ZM304 130C308.971 130 313 125.971 313 121C313 116.029 308.971 112 304 112C299.029 112 295 116.029 295 121C295 125.971 299.029 130 304 130Z" fill="#D32F2F"/>
</g>
<path d="M303.87 107.184C296.402 107.184 290.348 112.903 290.349 119.956C290.349 120.74 291.022 121.375 291.851 121.375C292.681 121.375 293.354 120.739 293.354 119.956C293.353 114.47 298.062 110.022 303.87 110.022C304.7 110.022 305.373 109.386 305.373 108.603C305.373 107.819 304.7 107.184 303.87 107.184Z" fill="#E57373"/>
<path d="M319 139.5C312 145.5 278.175 116.5 286.5 135C291 145 300.4 165.4 302 167C303.6 168.6 305 167.667 305.5 167L319 139.5Z" fill="black" fill-opacity="0.06"/>
<path d="M245 126.383C252 120.384 285.825 149.383 277.5 130.883C273 120.883 263.6 100.483 262 98.8835C260.4 97.2835 259 98.2168 258.5 98.8835L245 126.383Z" fill="black" fill-opacity="0.06"/>
<defs>
<filter id="filter0_d" x="10.76" y="20.128" width="319.196" height="147.88" filterUnits="userSpaceOnUse" color-interpolation-filters="sRGB">
<feFlood flood-opacity="0" result="BackgroundImageFix"/>
<feColorMatrix in="SourceAlpha" type="matrix" values="0 0 0 0 0 0 0 0 0 0 0 0 0 0 0 0 0 0 127 0"/>
<feOffset dy="4"/>
<feGaussianBlur stdDeviation="2"/>
<feColorMatrix type="matrix" values="0 0 0 0 0 0 0 0 0 0 0 0 0 0 0 0 0 0 0.25 0"/>
<feBlend mode="normal" in2="BackgroundImageFix" result="effect1_dropShadow"/>
<feBlend mode="normal" in="SourceGraphic" in2="effect1_dropShadow" result="shape"/>
</filter>
<filter id="filter1_d" x="0" y="0" width="342" height="16" filterUnits="userSpaceOnUse" color-interpolation-filters="sRGB">
<feFlood flood-opacity="0" result="BackgroundImageFix"/>
<feColorMatrix in="SourceAlpha" type="matrix" values="0 0 0 0 0 0 0 0 0 0 0 0 0 0 0 0 0 0 127 0"/>
<feOffset dy="4"/>
<feGaussianBlur stdDeviation="2"/>
<feColorMatrix type="matrix" values="0 0 0 0 0 0 0 0 0 0 0 0 0 0 0 0 0 0 0.25 0"/>
<feBlend mode="normal" in2="BackgroundImageFix" result="effect1_dropShadow"/>
<feBlend mode="normal" in="SourceGraphic" in2="effect1_dropShadow" result="shape"/>
</filter>
<filter id="filter2_d" x="0" y="178" width="342" height="16" filterUnits="userSpaceOnUse" color-interpolation-filters="sRGB">
<feFlood flood-opacity="0" result="BackgroundImageFix"/>
<feColorMatrix in="SourceAlpha" type="matrix" values="0 0 0 0 0 0 0 0 0 0 0 0 0 0 0 0 0 0 127 0"/>
<feOffset dy="4"/>
<feGaussianBlur stdDeviation="2"/>
<feColorMatrix type="matrix" values="0 0 0 0 0 0 0 0 0 0 0 0 0 0 0 0 0 0 0.25 0"/>
<feBlend mode="normal" in2="BackgroundImageFix" result="effect1_dropShadow"/>
<feBlend mode="normal" in="SourceGraphic" in2="effect1_dropShadow" result="shape"/>
</filter>
<filter id="filter3_d" x="235" y="98" width="51.4109" height="78.1199" filterUnits="userSpaceOnUse" color-interpolation-filters="sRGB">
<feFlood flood-opacity="0" result="BackgroundImageFix"/>
<feColorMatrix in="SourceAlpha" type="matrix" values="0 0 0 0 0 0 0 0 0 0 0 0 0 0 0 0 0 0 127 0"/>
<feOffset dy="4"/>
<feGaussianBlur stdDeviation="2"/>
<feColorMatrix type="matrix" values="0 0 0 0 0 0 0 0 0 0 0 0 0 0 0 0 0 0 0.25 0"/>
<feBlend mode="normal" in2="BackgroundImageFix" result="effect1_dropShadow"/>
<feBlend mode="normal" in="SourceGraphic" in2="effect1_dropShadow" result="shape"/>
</filter>
<filter id="filter4_d" x="278.002" y="98.0017" width="51.4055" height="78.1166" filterUnits="userSpaceOnUse" color-interpolation-filters="sRGB">
<feFlood flood-opacity="0" result="BackgroundImageFix"/>
<feColorMatrix in="SourceAlpha" type="matrix" values="0 0 0 0 0 0 0 0 0 0 0 0 0 0 0 0 0 0 127 0"/>
<feOffset dy="4"/>
<feGaussianBlur stdDeviation="2"/>
<feColorMatrix type="matrix" values="0 0 0 0 0 0 0 0 0 0 0 0 0 0 0 0 0 0 0.25 0"/>
<feBlend mode="normal" in2="BackgroundImageFix" result="effect1_dropShadow"/>
<feBlend mode="normal" in="SourceGraphic" in2="effect1_dropShadow" result="shape"/>
</filter>
</defs>
</svg>
