<svg width="95" height="79" viewBox="0 0 95 79" fill="none" xmlns="http://www.w3.org/2000/svg">
<g filter="url(#filter0_d)">
<path d="M24.4382 0.69606C24.8899 -0.0088363 25.8214 -0.210376 26.5191 0.245955C26.6973 0.362573 26.849 0.515786 26.9644 0.695864C27.8009 2.20735 47.4084 37.8235 47.4092 48.1882C47.4102 60.299 37.6944 70.1173 25.7082 70.1183C13.722 70.1192 4.00468 60.3023 4.00374 48.1915C4.00294 37.8268 23.605 2.20768 24.4382 0.69606Z" fill="#D32F2F"/>
</g>
<path d="M25.5408 61.1913C33.0089 61.1907 39.0627 55.4724 39.0621 48.4191C39.0621 47.6354 38.3893 47.0001 37.5595 47.0001C36.7297 47.0002 36.057 47.6356 36.0571 48.4193C36.0575 53.9052 31.3491 58.3529 25.5404 58.3533C24.7106 58.3534 24.038 58.9888 24.038 59.7725C24.0382 60.5562 24.711 61.1914 25.5408 61.1913Z" fill="#E57373"/>
<g filter="url(#filter1_d)">
<path fill-rule="evenodd" clip-rule="evenodd" d="M67.8918 69.874C68.5895 70.3304 69.521 70.1288 69.9727 69.4239C70.8059 67.9123 90.408 32.2932 90.4072 21.9284C90.4062 9.81765 80.6889 0.000781134 68.7027 0.00170905C56.7165 0.00263875 47.0007 9.82101 47.0016 21.9318C47.0025 32.2965 66.61 67.9126 67.4465 69.4241C67.5619 69.6042 67.7136 69.7574 67.8918 69.874ZM69 32C73.9706 32 78 27.9706 78 23C78 18.0295 73.9706 14 69 14C64.0294 14 60 18.0295 60 23C60 27.9706 64.0294 32 69 32Z" fill="#D32F2F"/>
</g>
<path d="M68.8701 9.18369C61.402 9.18427 55.3482 14.9026 55.3488 21.9559C55.3488 22.7396 56.0216 23.3749 56.8514 23.3749C57.6812 23.3748 58.3539 22.7394 58.3538 21.9557C58.3534 16.4698 63.0618 12.0221 68.8705 12.0217C69.7002 12.0216 70.3729 11.3862 70.3729 10.6025C70.3727 9.81881 69.6999 9.18362 68.8701 9.18369Z" fill="#E57373"/>
<path d="M84.0001 41.5001C77 47.5 43.1751 18.5 51.5001 37.0001C56.0001 47.0001 65.4001 67.4001 67.0001 69.0001C68.6001 70.6001 70.0001 69.6667 70.5001 69.0001L84.0001 41.5001Z" fill="black" fill-opacity="0.06"/>
<path d="M10 28.3835C17.0001 22.3835 50.825 51.3835 42.5 32.8835C38 22.8835 28.6 2.48345 27 0.883452C25.4 -0.716547 24 0.216784 23.5 0.883452L10 28.3835Z" fill="black" fill-opacity="0.06"/>
<defs>
<filter id="filter0_d" x="0" y="0" width="51.4109" height="78.1199" filterUnits="userSpaceOnUse" color-interpolation-filters="sRGB">
<feFlood flood-opacity="0" result="BackgroundImageFix"/>
<feColorMatrix in="SourceAlpha" type="matrix" values="0 0 0 0 0 0 0 0 0 0 0 0 0 0 0 0 0 0 127 0"/>
<feOffset dy="4"/>
<feGaussianBlur stdDeviation="2"/>
<feColorMatrix type="matrix" values="0 0 0 0 0 0 0 0 0 0 0 0 0 0 0 0 0 0 0.25 0"/>
<feBlend mode="normal" in2="BackgroundImageFix" result="effect1_dropShadow"/>
<feBlend mode="normal" in="SourceGraphic" in2="effect1_dropShadow" result="shape"/>
</filter>
<filter id="filter1_d" x="43.0016" y="0.00170898" width="51.4055" height="78.1166" filterUnits="userSpaceOnUse" color-interpolation-filters="sRGB">
<feFlood flood-opacity="0" result="BackgroundImageFix"/>
<feColorMatrix in="SourceAlpha" type="matrix" values="0 0 0 0 0 0 0 0 0 0 0 0 0 0 0 0 0 0 127 0"/>
<feOffset dy="4"/>
<feGaussianBlur stdDeviation="2"/>
<feColorMatrix type="matrix" values="0 0 0 0 0 0 0 0 0 0 0 0 0 0 0 0 0 0 0.25 0"/>
<feBlend mode="normal" in2="BackgroundImageFix" result="effect1_dropShadow"/>
<feBlend mode="normal" in="SourceGraphic" in2="effect1_dropShadow" result="shape"/>
</filter>
</defs>
</svg>
